<?xml version="1.0" encoding="UTF-8"?>
<svg xmlns="http://www.w3.org/2000/svg" viewBox="0 0 1200 800" width="1200" height="800">
  <defs>
    <linearGradient id="bgGrad" x1="0%" y1="0%" x2="100%" y2="100%">
      <stop offset="0%" style="stop-color:#0a0e1a"/>
      <stop offset="100%" style="stop-color:#0d1321"/>
    </linearGradient>
    <linearGradient id="cyanGrad" x1="0%" y1="0%" x2="100%" y2="100%">
      <stop offset="0%" style="stop-color:#0ea5e9"/>
      <stop offset="100%" style="stop-color:#06b6d4"/>
    </linearGradient>
    <linearGradient id="glowGrad" x1="0%" y1="0%" x2="0%" y2="100%">
      <stop offset="0%" style="stop-color:#0ea5e9;stop-opacity:0.3"/>
      <stop offset="100%" style="stop-color:#0ea5e9;stop-opacity:0"/>
    </linearGradient>
    <filter id="glow">
      <feGaussianBlur stdDeviation="4" result="coloredBlur"/>
      <feMerge><feMergeNode in="coloredBlur"/><feMergeNode in="SourceGraphic"/></feMerge>
    </filter>
    <filter id="softGlow">
      <feGaussianBlur stdDeviation="8" result="coloredBlur"/>
      <feMerge><feMergeNode in="coloredBlur"/><feMergeNode in="SourceGraphic"/></feMerge>
    </filter>
  </defs>
  <rect width="1200" height="800" fill="url(#bgGrad)"/>

  <line x1="0" y1="0" x2="0" y2="800" stroke="#0ea5e9" stroke-opacity="0.03" stroke-width="0.5"/>
<line x1="60" y1="0" x2="60" y2="800" stroke="#0ea5e9" stroke-opacity="0.03" stroke-width="0.5"/>
<line x1="120" y1="0" x2="120" y2="800" stroke="#0ea5e9" stroke-opacity="0.03" stroke-width="0.5"/>
<line x1="180" y1="0" x2="180" y2="800" stroke="#0ea5e9" stroke-opacity="0.03" stroke-width="0.5"/>
<line x1="240" y1="0" x2="240" y2="800" stroke="#0ea5e9" stroke-opacity="0.03" stroke-width="0.5"/>
<line x1="300" y1="0" x2="300" y2="800" stroke="#0ea5e9" stroke-opacity="0.03" stroke-width="0.5"/>
<line x1="360" y1="0" x2="360" y2="800" stroke="#0ea5e9" stroke-opacity="0.03" stroke-width="0.5"/>
<line x1="420" y1="0" x2="420" y2="800" stroke="#0ea5e9" stroke-opacity="0.03" stroke-width="0.5"/>
<line x1="480" y1="0" x2="480" y2="800" stroke="#0ea5e9" stroke-opacity="0.03" stroke-width="0.5"/>
<line x1="540" y1="0" x2="540" y2="800" stroke="#0ea5e9" stroke-opacity="0.03" stroke-width="0.5"/>
<line x1="600" y1="0" x2="600" y2="800" stroke="#0ea5e9" stroke-opacity="0.03" stroke-width="0.5"/>
<line x1="660" y1="0" x2="660" y2="800" stroke="#0ea5e9" stroke-opacity="0.03" stroke-width="0.5"/>
<line x1="720" y1="0" x2="720" y2="800" stroke="#0ea5e9" stroke-opacity="0.03" stroke-width="0.5"/>
<line x1="780" y1="0" x2="780" y2="800" stroke="#0ea5e9" stroke-opacity="0.03" stroke-width="0.5"/>
<line x1="840" y1="0" x2="840" y2="800" stroke="#0ea5e9" stroke-opacity="0.03" stroke-width="0.5"/>
<line x1="900" y1="0" x2="900" y2="800" stroke="#0ea5e9" stroke-opacity="0.03" stroke-width="0.5"/>
<line x1="960" y1="0" x2="960" y2="800" stroke="#0ea5e9" stroke-opacity="0.03" stroke-width="0.5"/>
<line x1="1020" y1="0" x2="1020" y2="800" stroke="#0ea5e9" stroke-opacity="0.03" stroke-width="0.5"/>
<line x1="1080" y1="0" x2="1080" y2="800" stroke="#0ea5e9" stroke-opacity="0.03" stroke-width="0.5"/>
<line x1="1140" y1="0" x2="1140" y2="800" stroke="#0ea5e9" stroke-opacity="0.03" stroke-width="0.5"/>
<line x1="1200" y1="0" x2="1200" y2="800" stroke="#0ea5e9" stroke-opacity="0.03" stroke-width="0.5"/>
<line x1="0" y1="0" x2="1200" y2="0" stroke="#0ea5e9" stroke-opacity="0.03" stroke-width="0.5"/>
<line x1="0" y1="60" x2="1200" y2="60" stroke="#0ea5e9" stroke-opacity="0.03" stroke-width="0.5"/>
<line x1="0" y1="120" x2="1200" y2="120" stroke="#0ea5e9" stroke-opacity="0.03" stroke-width="0.5"/>
<line x1="0" y1="180" x2="1200" y2="180" stroke="#0ea5e9" stroke-opacity="0.03" stroke-width="0.5"/>
<line x1="0" y1="240" x2="1200" y2="240" stroke="#0ea5e9" stroke-opacity="0.03" stroke-width="0.5"/>
<line x1="0" y1="300" x2="1200" y2="300" stroke="#0ea5e9" stroke-opacity="0.03" stroke-width="0.5"/>
<line x1="0" y1="360" x2="1200" y2="360" stroke="#0ea5e9" stroke-opacity="0.03" stroke-width="0.5"/>
<line x1="0" y1="420" x2="1200" y2="420" stroke="#0ea5e9" stroke-opacity="0.03" stroke-width="0.5"/>
<line x1="0" y1="480" x2="1200" y2="480" stroke="#0ea5e9" stroke-opacity="0.03" stroke-width="0.5"/>
<line x1="0" y1="540" x2="1200" y2="540" stroke="#0ea5e9" stroke-opacity="0.03" stroke-width="0.5"/>
<line x1="0" y1="600" x2="1200" y2="600" stroke="#0ea5e9" stroke-opacity="0.03" stroke-width="0.5"/>
<line x1="0" y1="660" x2="1200" y2="660" stroke="#0ea5e9" stroke-opacity="0.03" stroke-width="0.5"/>
<line x1="0" y1="720" x2="1200" y2="720" stroke="#0ea5e9" stroke-opacity="0.03" stroke-width="0.5"/>
<line x1="0" y1="780" x2="1200" y2="780" stroke="#0ea5e9" stroke-opacity="0.03" stroke-width="0.5"/>
  <!-- Rising graph line behind people -->
  <polyline points="100,600 300,550 500,500 700,450 900,420 1100,350" fill="none" stroke="#0ea5e9" stroke-opacity="0.1" stroke-width="2"/>
  
    <circle cx="250" cy="311" r="25" fill="#141c2e" stroke="#0ea5e9" stroke-opacity="0.3" stroke-width="1"/>
    <rect x="225" y="341" width="50" height="89" rx="6" fill="#141c2e" stroke="#0ea5e9" stroke-opacity="0.2" stroke-width="0.5"/>
    <circle cx="250" cy="311" r="5" fill="#0ea5e9" opacity="0.3"/><line x1="250" y1="341" x2="400" y2="306" stroke="#0ea5e9" stroke-opacity="0.08" stroke-width="0.5" stroke-dasharray="4,4"/>
    <circle cx="400" cy="291" r="25" fill="#141c2e" stroke="#0ea5e9" stroke-opacity="0.3" stroke-width="1"/>
    <rect x="375" y="321" width="50" height="89" rx="6" fill="#141c2e" stroke="#0ea5e9" stroke-opacity="0.2" stroke-width="0.5"/>
    <circle cx="400" cy="291" r="5" fill="#0ea5e9" opacity="0.3"/><line x1="400" y1="321" x2="550" y2="288" stroke="#0ea5e9" stroke-opacity="0.08" stroke-width="0.5" stroke-dasharray="4,4"/>
    <circle cx="550" cy="274" r="25" fill="#141c2e" stroke="#0ea5e9" stroke-opacity="0.3" stroke-width="1"/>
    <rect x="525" y="304" width="50" height="86" rx="6" fill="#141c2e" stroke="#0ea5e9" stroke-opacity="0.2" stroke-width="0.5"/>
    <circle cx="550" cy="274" r="5" fill="#0ea5e9" opacity="0.3"/><line x1="550" y1="304" x2="700" y2="308" stroke="#0ea5e9" stroke-opacity="0.08" stroke-width="0.5" stroke-dasharray="4,4"/>
    <circle cx="700" cy="278" r="25" fill="#141c2e" stroke="#0ea5e9" stroke-opacity="0.3" stroke-width="1"/>
    <rect x="675" y="308" width="50" height="102" rx="6" fill="#141c2e" stroke="#0ea5e9" stroke-opacity="0.2" stroke-width="0.5"/>
    <circle cx="700" cy="278" r="5" fill="#0ea5e9" opacity="0.3"/><line x1="700" y1="308" x2="850" y2="335" stroke="#0ea5e9" stroke-opacity="0.08" stroke-width="0.5" stroke-dasharray="4,4"/>
    <circle cx="850" cy="310" r="25" fill="#141c2e" stroke="#0ea5e9" stroke-opacity="0.3" stroke-width="1"/>
    <rect x="825" y="340" width="50" height="90" rx="6" fill="#141c2e" stroke="#0ea5e9" stroke-opacity="0.2" stroke-width="0.5"/>
    <circle cx="850" cy="310" r="5" fill="#0ea5e9" opacity="0.3"/><line x1="850" y1="340" x2="1000" y2="315" stroke="#0ea5e9" stroke-opacity="0.08" stroke-width="0.5" stroke-dasharray="4,4"/>
    <circle cx="1000" cy="289" r="25" fill="#141c2e" stroke="#0ea5e9" stroke-opacity="0.3" stroke-width="1"/>
    <rect x="975" y="319" width="50" height="91" rx="6" fill="#141c2e" stroke="#0ea5e9" stroke-opacity="0.2" stroke-width="0.5"/>
    <circle cx="1000" cy="289" r="5" fill="#0ea5e9" opacity="0.3"/>
  <!-- Growth arrow -->
  <line x1="1100" y1="350" x2="1130" y2="330" stroke="#0ea5e9" stroke-opacity="0.3" stroke-width="2"/>
  <polygon points="1130,310 1145,340 1115,340" fill="#0ea5e9" opacity="0.3"/>
  <circle cx="1167" cy="758" r="1.5469150735108461" fill="#0ea5e9" opacity="0.13656223171981452"/>
<circle cx="1132" cy="408" r="2.7915209230804523" fill="#0ea5e9" opacity="0.218359736692259"/>
<circle cx="726" cy="169" r="1.5809053039858711" fill="#0ea5e9" opacity="0.186289102484242"/>
<circle cx="181" cy="374" r="2.848019263779761" fill="#0ea5e9" opacity="0.2967916151652723"/>
<circle cx="1001" cy="239" r="1.404136014401193" fill="#0ea5e9" opacity="0.2615733771125959"/>
<circle cx="1171" cy="732" r="1.5432429334114932" fill="#0ea5e9" opacity="0.13276797447132402"/>
<circle cx="510" cy="268" r="1.101530859914928" fill="#0ea5e9" opacity="0.3715552572854791"/>
<circle cx="482" cy="673" r="1.4656731196119055" fill="#0ea5e9" opacity="0.1300593877135993"/>
<circle cx="696" cy="754" r="1.9448078140697613" fill="#0ea5e9" opacity="0.30435759597442913"/>
<circle cx="301" cy="25" r="2.929037534450778" fill="#0ea5e9" opacity="0.39337321354992616"/>
<circle cx="343" cy="436" r="2.3057855954025994" fill="#0ea5e9" opacity="0.36419423716902655"/>
<circle cx="994" cy="508" r="2.301077383748531" fill="#0ea5e9" opacity="0.32677331782262187"/>
<circle cx="608" cy="348" r="1.5708306826039837" fill="#0ea5e9" opacity="0.11774877587244723"/>
<circle cx="203" cy="687" r="2.1482667063507463" fill="#0ea5e9" opacity="0.26054568306808146"/>
<circle cx="96" cy="199" r="1.8357699644900107" fill="#0ea5e9" opacity="0.35128146672797667"/>

</svg>