<?xml version="1.0" encoding="UTF-8"?>
<svg xmlns="http://www.w3.org/2000/svg" viewBox="0 0 1200 800" width="1200" height="800">
  <defs>
    <linearGradient id="bgGrad" x1="0%" y1="0%" x2="100%" y2="100%">
      <stop offset="0%" style="stop-color:#0a0e1a"/>
      <stop offset="100%" style="stop-color:#0d1321"/>
    </linearGradient>
    <linearGradient id="cyanGrad" x1="0%" y1="0%" x2="100%" y2="100%">
      <stop offset="0%" style="stop-color:#0ea5e9"/>
      <stop offset="100%" style="stop-color:#06b6d4"/>
    </linearGradient>
    <linearGradient id="glowGrad" x1="0%" y1="0%" x2="0%" y2="100%">
      <stop offset="0%" style="stop-color:#0ea5e9;stop-opacity:0.3"/>
      <stop offset="100%" style="stop-color:#0ea5e9;stop-opacity:0"/>
    </linearGradient>
    <filter id="glow">
      <feGaussianBlur stdDeviation="4" result="coloredBlur"/>
      <feMerge><feMergeNode in="coloredBlur"/><feMergeNode in="SourceGraphic"/></feMerge>
    </filter>
    <filter id="softGlow">
      <feGaussianBlur stdDeviation="8" result="coloredBlur"/>
      <feMerge><feMergeNode in="coloredBlur"/><feMergeNode in="SourceGraphic"/></feMerge>
    </filter>
  </defs>
  <rect width="1200" height="800" fill="url(#bgGrad)"/>

  <line x1="0" y1="0" x2="0" y2="800" stroke="#0ea5e9" stroke-opacity="0.02" stroke-width="0.5"/>
<line x1="60" y1="0" x2="60" y2="800" stroke="#0ea5e9" stroke-opacity="0.02" stroke-width="0.5"/>
<line x1="120" y1="0" x2="120" y2="800" stroke="#0ea5e9" stroke-opacity="0.02" stroke-width="0.5"/>
<line x1="180" y1="0" x2="180" y2="800" stroke="#0ea5e9" stroke-opacity="0.02" stroke-width="0.5"/>
<line x1="240" y1="0" x2="240" y2="800" stroke="#0ea5e9" stroke-opacity="0.02" stroke-width="0.5"/>
<line x1="300" y1="0" x2="300" y2="800" stroke="#0ea5e9" stroke-opacity="0.02" stroke-width="0.5"/>
<line x1="360" y1="0" x2="360" y2="800" stroke="#0ea5e9" stroke-opacity="0.02" stroke-width="0.5"/>
<line x1="420" y1="0" x2="420" y2="800" stroke="#0ea5e9" stroke-opacity="0.02" stroke-width="0.5"/>
<line x1="480" y1="0" x2="480" y2="800" stroke="#0ea5e9" stroke-opacity="0.02" stroke-width="0.5"/>
<line x1="540" y1="0" x2="540" y2="800" stroke="#0ea5e9" stroke-opacity="0.02" stroke-width="0.5"/>
<line x1="600" y1="0" x2="600" y2="800" stroke="#0ea5e9" stroke-opacity="0.02" stroke-width="0.5"/>
<line x1="660" y1="0" x2="660" y2="800" stroke="#0ea5e9" stroke-opacity="0.02" stroke-width="0.5"/>
<line x1="720" y1="0" x2="720" y2="800" stroke="#0ea5e9" stroke-opacity="0.02" stroke-width="0.5"/>
<line x1="780" y1="0" x2="780" y2="800" stroke="#0ea5e9" stroke-opacity="0.02" stroke-width="0.5"/>
<line x1="840" y1="0" x2="840" y2="800" stroke="#0ea5e9" stroke-opacity="0.02" stroke-width="0.5"/>
<line x1="900" y1="0" x2="900" y2="800" stroke="#0ea5e9" stroke-opacity="0.02" stroke-width="0.5"/>
<line x1="960" y1="0" x2="960" y2="800" stroke="#0ea5e9" stroke-opacity="0.02" stroke-width="0.5"/>
<line x1="1020" y1="0" x2="1020" y2="800" stroke="#0ea5e9" stroke-opacity="0.02" stroke-width="0.5"/>
<line x1="1080" y1="0" x2="1080" y2="800" stroke="#0ea5e9" stroke-opacity="0.02" stroke-width="0.5"/>
<line x1="1140" y1="0" x2="1140" y2="800" stroke="#0ea5e9" stroke-opacity="0.02" stroke-width="0.5"/>
<line x1="1200" y1="0" x2="1200" y2="800" stroke="#0ea5e9" stroke-opacity="0.02" stroke-width="0.5"/>
<line x1="0" y1="0" x2="1200" y2="0" stroke="#0ea5e9" stroke-opacity="0.02" stroke-width="0.5"/>
<line x1="0" y1="60" x2="1200" y2="60" stroke="#0ea5e9" stroke-opacity="0.02" stroke-width="0.5"/>
<line x1="0" y1="120" x2="1200" y2="120" stroke="#0ea5e9" stroke-opacity="0.02" stroke-width="0.5"/>
<line x1="0" y1="180" x2="1200" y2="180" stroke="#0ea5e9" stroke-opacity="0.02" stroke-width="0.5"/>
<line x1="0" y1="240" x2="1200" y2="240" stroke="#0ea5e9" stroke-opacity="0.02" stroke-width="0.5"/>
<line x1="0" y1="300" x2="1200" y2="300" stroke="#0ea5e9" stroke-opacity="0.02" stroke-width="0.5"/>
<line x1="0" y1="360" x2="1200" y2="360" stroke="#0ea5e9" stroke-opacity="0.02" stroke-width="0.5"/>
<line x1="0" y1="420" x2="1200" y2="420" stroke="#0ea5e9" stroke-opacity="0.02" stroke-width="0.5"/>
<line x1="0" y1="480" x2="1200" y2="480" stroke="#0ea5e9" stroke-opacity="0.02" stroke-width="0.5"/>
<line x1="0" y1="540" x2="1200" y2="540" stroke="#0ea5e9" stroke-opacity="0.02" stroke-width="0.5"/>
<line x1="0" y1="600" x2="1200" y2="600" stroke="#0ea5e9" stroke-opacity="0.02" stroke-width="0.5"/>
<line x1="0" y1="660" x2="1200" y2="660" stroke="#0ea5e9" stroke-opacity="0.02" stroke-width="0.5"/>
<line x1="0" y1="720" x2="1200" y2="720" stroke="#0ea5e9" stroke-opacity="0.02" stroke-width="0.5"/>
<line x1="0" y1="780" x2="1200" y2="780" stroke="#0ea5e9" stroke-opacity="0.02" stroke-width="0.5"/>
  <!-- Ground line -->
  <line x1="0" y1="600" x2="1200" y2="600" stroke="#0ea5e9" stroke-opacity="0.15" stroke-width="1"/>
  <rect x="0" y="600" width="1200" height="200" fill="url(#glowGrad)" opacity="0.1"/>
  
    <rect x="150" y="300.0" width="84" height="300.0" rx="2" fill="#141c2e" stroke="#0ea5e9" stroke-opacity="0.2" stroke-width="0.5"/><rect x="158" y="310.0" width="10" height="15" rx="1" fill="#0a0e1a" opacity="0.3"/><rect x="178" y="310.0" width="10" height="15" rx="1" fill="#0ea5e9" opacity="0.15"/><rect x="198" y="310.0" width="10" height="15" rx="1" fill="#0a0e1a" opacity="0.3"/><rect x="218" y="310.0" width="10" height="15" rx="1" fill="#0ea5e9" opacity="0.15"/><rect x="158" y="340.0" width="10" height="15" rx="1" fill="#0ea5e9" opacity="0.15"/><rect x="178" y="340.0" width="10" height="15" rx="1" fill="#0ea5e9" opacity="0.15"/><rect x="198" y="340.0" width="10" height="15" rx="1" fill="#0ea5e9" opacity="0.15"/><rect x="218" y="340.0" width="10" height="15" rx="1" fill="#0ea5e9" opacity="0.15"/><rect x="158" y="370.0" width="10" height="15" rx="1" fill="#0a0e1a" opacity="0.3"/><rect x="178" y="370.0" width="10" height="15" rx="1" fill="#0ea5e9" opacity="0.15"/><rect x="198" y="370.0" width="10" height="15" rx="1" fill="#0a0e1a" opacity="0.3"/><rect x="218" y="370.0" width="10" height="15" rx="1" fill="#0a0e1a" opacity="0.3"/><rect x="158" y="400.0" width="10" height="15" rx="1" fill="#0a0e1a" opacity="0.3"/><rect x="178" y="400.0" width="10" height="15" rx="1" fill="#0ea5e9" opacity="0.15"/><rect x="198" y="400.0" width="10" height="15" rx="1" fill="#0ea5e9" opacity="0.15"/><rect x="218" y="400.0" width="10" height="15" rx="1" fill="#0ea5e9" opacity="0.15"/><rect x="158" y="430.0" width="10" height="15" rx="1" fill="#0a0e1a" opacity="0.3"/><rect x="178" y="430.0" width="10" height="15" rx="1" fill="#0a0e1a" opacity="0.3"/><rect x="198" y="430.0" width="10" height="15" rx="1" fill="#0ea5e9" opacity="0.15"/><rect x="218" y="430.0" width="10" height="15" rx="1" fill="#0ea5e9" opacity="0.15"/><rect x="158" y="460.0" width="10" height="15" rx="1" fill="#0ea5e9" opacity="0.15"/><rect x="178" y="460.0" width="10" height="15" rx="1" fill="#0a0e1a" opacity="0.3"/><rect x="198" y="460.0" width="10" height="15" rx="1" fill="#0ea5e9" opacity="0.15"/><rect x="218" y="460.0" width="10" height="15" rx="1" fill="#0ea5e9" opacity="0.15"/><rect x="158" y="490.0" width="10" height="15" rx="1" fill="#0a0e1a" opacity="0.3"/><rect x="178" y="490.0" width="10" height="15" rx="1" fill="#0ea5e9" opacity="0.15"/><rect x="198" y="490.0" width="10" height="15" rx="1" fill="#0a0e1a" opacity="0.3"/><rect x="218" y="490.0" width="10" height="15" rx="1" fill="#0ea5e9" opacity="0.15"/><rect x="158" y="520.0" width="10" height="15" rx="1" fill="#0ea5e9" opacity="0.15"/><rect x="178" y="520.0" width="10" height="15" rx="1" fill="#0a0e1a" opacity="0.3"/><rect x="198" y="520.0" width="10" height="15" rx="1" fill="#0a0e1a" opacity="0.3"/><rect x="218" y="520.0" width="10" height="15" rx="1" fill="#0ea5e9" opacity="0.15"/><rect x="158" y="550.0" width="10" height="15" rx="1" fill="#0ea5e9" opacity="0.15"/><rect x="178" y="550.0" width="10" height="15" rx="1" fill="#0a0e1a" opacity="0.3"/><rect x="198" y="550.0" width="10" height="15" rx="1" fill="#0a0e1a" opacity="0.3"/><rect x="218" y="550.0" width="10" height="15" rx="1" fill="#0ea5e9" opacity="0.15"/><rect x="158" y="580.0" width="10" height="15" rx="1" fill="#0ea5e9" opacity="0.15"/><rect x="178" y="580.0" width="10" height="15" rx="1" fill="#0a0e1a" opacity="0.3"/><rect x="198" y="580.0" width="10" height="15" rx="1" fill="#0a0e1a" opacity="0.3"/><rect x="218" y="580.0" width="10" height="15" rx="1" fill="#0ea5e9" opacity="0.15"/>
    <rect x="280" y="375.0" width="60" height="225.0" rx="2" fill="#141c2e" stroke="#0ea5e9" stroke-opacity="0.2" stroke-width="0.5"/><rect x="288" y="385.0" width="10" height="15" rx="1" fill="#0ea5e9" opacity="0.15"/><rect x="308" y="385.0" width="10" height="15" rx="1" fill="#0ea5e9" opacity="0.15"/><rect x="328" y="385.0" width="10" height="15" rx="1" fill="#0ea5e9" opacity="0.15"/><rect x="288" y="415.0" width="10" height="15" rx="1" fill="#0a0e1a" opacity="0.3"/><rect x="308" y="415.0" width="10" height="15" rx="1" fill="#0ea5e9" opacity="0.15"/><rect x="328" y="415.0" width="10" height="15" rx="1" fill="#0a0e1a" opacity="0.3"/><rect x="288" y="445.0" width="10" height="15" rx="1" fill="#0a0e1a" opacity="0.3"/><rect x="308" y="445.0" width="10" height="15" rx="1" fill="#0a0e1a" opacity="0.3"/><rect x="328" y="445.0" width="10" height="15" rx="1" fill="#0ea5e9" opacity="0.15"/><rect x="288" y="475.0" width="10" height="15" rx="1" fill="#0ea5e9" opacity="0.15"/><rect x="308" y="475.0" width="10" height="15" rx="1" fill="#0a0e1a" opacity="0.3"/><rect x="328" y="475.0" width="10" height="15" rx="1" fill="#0ea5e9" opacity="0.15"/><rect x="288" y="505.0" width="10" height="15" rx="1" fill="#0a0e1a" opacity="0.3"/><rect x="308" y="505.0" width="10" height="15" rx="1" fill="#0ea5e9" opacity="0.15"/><rect x="328" y="505.0" width="10" height="15" rx="1" fill="#0ea5e9" opacity="0.15"/><rect x="288" y="535.0" width="10" height="15" rx="1" fill="#0a0e1a" opacity="0.3"/><rect x="308" y="535.0" width="10" height="15" rx="1" fill="#0ea5e9" opacity="0.15"/><rect x="328" y="535.0" width="10" height="15" rx="1" fill="#0a0e1a" opacity="0.3"/><rect x="288" y="565.0" width="10" height="15" rx="1" fill="#0ea5e9" opacity="0.15"/><rect x="308" y="565.0" width="10" height="15" rx="1" fill="#0a0e1a" opacity="0.3"/><rect x="328" y="565.0" width="10" height="15" rx="1" fill="#0ea5e9" opacity="0.15"/>
    <rect x="400" y="225.0" width="66" height="375.0" rx="2" fill="#141c2e" stroke="#0ea5e9" stroke-opacity="0.2" stroke-width="0.5"/><rect x="408" y="235.0" width="10" height="15" rx="1" fill="#0a0e1a" opacity="0.3"/><rect x="428" y="235.0" width="10" height="15" rx="1" fill="#0ea5e9" opacity="0.15"/><rect x="448" y="235.0" width="10" height="15" rx="1" fill="#0ea5e9" opacity="0.15"/><rect x="408" y="265.0" width="10" height="15" rx="1" fill="#0ea5e9" opacity="0.15"/><rect x="428" y="265.0" width="10" height="15" rx="1" fill="#0ea5e9" opacity="0.15"/><rect x="448" y="265.0" width="10" height="15" rx="1" fill="#0ea5e9" opacity="0.15"/><rect x="408" y="295.0" width="10" height="15" rx="1" fill="#0a0e1a" opacity="0.3"/><rect x="428" y="295.0" width="10" height="15" rx="1" fill="#0a0e1a" opacity="0.3"/><rect x="448" y="295.0" width="10" height="15" rx="1" fill="#0a0e1a" opacity="0.3"/><rect x="408" y="325.0" width="10" height="15" rx="1" fill="#0ea5e9" opacity="0.15"/><rect x="428" y="325.0" width="10" height="15" rx="1" fill="#0ea5e9" opacity="0.15"/><rect x="448" y="325.0" width="10" height="15" rx="1" fill="#0ea5e9" opacity="0.15"/><rect x="408" y="355.0" width="10" height="15" rx="1" fill="#0a0e1a" opacity="0.3"/><rect x="428" y="355.0" width="10" height="15" rx="1" fill="#0a0e1a" opacity="0.3"/><rect x="448" y="355.0" width="10" height="15" rx="1" fill="#0a0e1a" opacity="0.3"/><rect x="408" y="385.0" width="10" height="15" rx="1" fill="#0a0e1a" opacity="0.3"/><rect x="428" y="385.0" width="10" height="15" rx="1" fill="#0a0e1a" opacity="0.3"/><rect x="448" y="385.0" width="10" height="15" rx="1" fill="#0ea5e9" opacity="0.15"/><rect x="408" y="415.0" width="10" height="15" rx="1" fill="#0a0e1a" opacity="0.3"/><rect x="428" y="415.0" width="10" height="15" rx="1" fill="#0ea5e9" opacity="0.15"/><rect x="448" y="415.0" width="10" height="15" rx="1" fill="#0ea5e9" opacity="0.15"/><rect x="408" y="445.0" width="10" height="15" rx="1" fill="#0ea5e9" opacity="0.15"/><rect x="428" y="445.0" width="10" height="15" rx="1" fill="#0ea5e9" opacity="0.15"/><rect x="448" y="445.0" width="10" height="15" rx="1" fill="#0ea5e9" opacity="0.15"/><rect x="408" y="475.0" width="10" height="15" rx="1" fill="#0a0e1a" opacity="0.3"/><rect x="428" y="475.0" width="10" height="15" rx="1" fill="#0a0e1a" opacity="0.3"/><rect x="448" y="475.0" width="10" height="15" rx="1" fill="#0a0e1a" opacity="0.3"/><rect x="408" y="505.0" width="10" height="15" rx="1" fill="#0a0e1a" opacity="0.3"/><rect x="428" y="505.0" width="10" height="15" rx="1" fill="#0a0e1a" opacity="0.3"/><rect x="448" y="505.0" width="10" height="15" rx="1" fill="#0a0e1a" opacity="0.3"/><rect x="408" y="535.0" width="10" height="15" rx="1" fill="#0ea5e9" opacity="0.15"/><rect x="428" y="535.0" width="10" height="15" rx="1" fill="#0ea5e9" opacity="0.15"/><rect x="448" y="535.0" width="10" height="15" rx="1" fill="#0ea5e9" opacity="0.15"/><rect x="408" y="565.0" width="10" height="15" rx="1" fill="#0ea5e9" opacity="0.15"/><rect x="428" y="565.0" width="10" height="15" rx="1" fill="#0ea5e9" opacity="0.15"/><rect x="448" y="565.0" width="10" height="15" rx="1" fill="#0ea5e9" opacity="0.15"/>
    <rect x="500" y="420.0" width="89" height="180.0" rx="2" fill="#141c2e" stroke="#0ea5e9" stroke-opacity="0.2" stroke-width="0.5"/><rect x="508" y="430.0" width="10" height="15" rx="1" fill="#0ea5e9" opacity="0.15"/><rect x="528" y="430.0" width="10" height="15" rx="1" fill="#0ea5e9" opacity="0.15"/><rect x="548" y="430.0" width="10" height="15" rx="1" fill="#0ea5e9" opacity="0.15"/><rect x="568" y="430.0" width="10" height="15" rx="1" fill="#0a0e1a" opacity="0.3"/><rect x="508" y="460.0" width="10" height="15" rx="1" fill="#0a0e1a" opacity="0.3"/><rect x="528" y="460.0" width="10" height="15" rx="1" fill="#0ea5e9" opacity="0.15"/><rect x="548" y="460.0" width="10" height="15" rx="1" fill="#0a0e1a" opacity="0.3"/><rect x="568" y="460.0" width="10" height="15" rx="1" fill="#0a0e1a" opacity="0.3"/><rect x="508" y="490.0" width="10" height="15" rx="1" fill="#0a0e1a" opacity="0.3"/><rect x="528" y="490.0" width="10" height="15" rx="1" fill="#0a0e1a" opacity="0.3"/><rect x="548" y="490.0" width="10" height="15" rx="1" fill="#0ea5e9" opacity="0.15"/><rect x="568" y="490.0" width="10" height="15" rx="1" fill="#0ea5e9" opacity="0.15"/><rect x="508" y="520.0" width="10" height="15" rx="1" fill="#0ea5e9" opacity="0.15"/><rect x="528" y="520.0" width="10" height="15" rx="1" fill="#0ea5e9" opacity="0.15"/><rect x="548" y="520.0" width="10" height="15" rx="1" fill="#0ea5e9" opacity="0.15"/><rect x="568" y="520.0" width="10" height="15" rx="1" fill="#0ea5e9" opacity="0.15"/><rect x="508" y="550.0" width="10" height="15" rx="1" fill="#0ea5e9" opacity="0.15"/><rect x="528" y="550.0" width="10" height="15" rx="1" fill="#0ea5e9" opacity="0.15"/><rect x="548" y="550.0" width="10" height="15" rx="1" fill="#0a0e1a" opacity="0.3"/><rect x="568" y="550.0" width="10" height="15" rx="1" fill="#0a0e1a" opacity="0.3"/><rect x="508" y="580.0" width="10" height="15" rx="1" fill="#0ea5e9" opacity="0.15"/><rect x="528" y="580.0" width="10" height="15" rx="1" fill="#0a0e1a" opacity="0.3"/><rect x="548" y="580.0" width="10" height="15" rx="1" fill="#0a0e1a" opacity="0.3"/><rect x="568" y="580.0" width="10" height="15" rx="1" fill="#0ea5e9" opacity="0.15"/>
    <rect x="620" y="330.0" width="65" height="270.0" rx="2" fill="#141c2e" stroke="#0ea5e9" stroke-opacity="0.2" stroke-width="0.5"/><rect x="628" y="340.0" width="10" height="15" rx="1" fill="#0ea5e9" opacity="0.15"/><rect x="648" y="340.0" width="10" height="15" rx="1" fill="#0ea5e9" opacity="0.15"/><rect x="668" y="340.0" width="10" height="15" rx="1" fill="#0ea5e9" opacity="0.15"/><rect x="628" y="370.0" width="10" height="15" rx="1" fill="#0ea5e9" opacity="0.15"/><rect x="648" y="370.0" width="10" height="15" rx="1" fill="#0ea5e9" opacity="0.15"/><rect x="668" y="370.0" width="10" height="15" rx="1" fill="#0ea5e9" opacity="0.15"/><rect x="628" y="400.0" width="10" height="15" rx="1" fill="#0a0e1a" opacity="0.3"/><rect x="648" y="400.0" width="10" height="15" rx="1" fill="#0ea5e9" opacity="0.15"/><rect x="668" y="400.0" width="10" height="15" rx="1" fill="#0ea5e9" opacity="0.15"/><rect x="628" y="430.0" width="10" height="15" rx="1" fill="#0ea5e9" opacity="0.15"/><rect x="648" y="430.0" width="10" height="15" rx="1" fill="#0ea5e9" opacity="0.15"/><rect x="668" y="430.0" width="10" height="15" rx="1" fill="#0ea5e9" opacity="0.15"/><rect x="628" y="460.0" width="10" height="15" rx="1" fill="#0ea5e9" opacity="0.15"/><rect x="648" y="460.0" width="10" height="15" rx="1" fill="#0a0e1a" opacity="0.3"/><rect x="668" y="460.0" width="10" height="15" rx="1" fill="#0ea5e9" opacity="0.15"/><rect x="628" y="490.0" width="10" height="15" rx="1" fill="#0ea5e9" opacity="0.15"/><rect x="648" y="490.0" width="10" height="15" rx="1" fill="#0ea5e9" opacity="0.15"/><rect x="668" y="490.0" width="10" height="15" rx="1" fill="#0a0e1a" opacity="0.3"/><rect x="628" y="520.0" width="10" height="15" rx="1" fill="#0ea5e9" opacity="0.15"/><rect x="648" y="520.0" width="10" height="15" rx="1" fill="#0a0e1a" opacity="0.3"/><rect x="668" y="520.0" width="10" height="15" rx="1" fill="#0a0e1a" opacity="0.3"/><rect x="628" y="550.0" width="10" height="15" rx="1" fill="#0ea5e9" opacity="0.15"/><rect x="648" y="550.0" width="10" height="15" rx="1" fill="#0a0e1a" opacity="0.3"/><rect x="668" y="550.0" width="10" height="15" rx="1" fill="#0ea5e9" opacity="0.15"/><rect x="628" y="580.0" width="10" height="15" rx="1" fill="#0a0e1a" opacity="0.3"/><rect x="648" y="580.0" width="10" height="15" rx="1" fill="#0ea5e9" opacity="0.15"/><rect x="668" y="580.0" width="10" height="15" rx="1" fill="#0a0e1a" opacity="0.3"/>
    <rect x="730" y="270.0" width="83" height="330.0" rx="2" fill="#141c2e" stroke="#0ea5e9" stroke-opacity="0.2" stroke-width="0.5"/><rect x="738" y="280.0" width="10" height="15" rx="1" fill="#0ea5e9" opacity="0.15"/><rect x="758" y="280.0" width="10" height="15" rx="1" fill="#0a0e1a" opacity="0.3"/><rect x="778" y="280.0" width="10" height="15" rx="1" fill="#0ea5e9" opacity="0.15"/><rect x="798" y="280.0" width="10" height="15" rx="1" fill="#0ea5e9" opacity="0.15"/><rect x="738" y="310.0" width="10" height="15" rx="1" fill="#0a0e1a" opacity="0.3"/><rect x="758" y="310.0" width="10" height="15" rx="1" fill="#0a0e1a" opacity="0.3"/><rect x="778" y="310.0" width="10" height="15" rx="1" fill="#0a0e1a" opacity="0.3"/><rect x="798" y="310.0" width="10" height="15" rx="1" fill="#0a0e1a" opacity="0.3"/><rect x="738" y="340.0" width="10" height="15" rx="1" fill="#0a0e1a" opacity="0.3"/><rect x="758" y="340.0" width="10" height="15" rx="1" fill="#0a0e1a" opacity="0.3"/><rect x="778" y="340.0" width="10" height="15" rx="1" fill="#0a0e1a" opacity="0.3"/><rect x="798" y="340.0" width="10" height="15" rx="1" fill="#0ea5e9" opacity="0.15"/><rect x="738" y="370.0" width="10" height="15" rx="1" fill="#0a0e1a" opacity="0.3"/><rect x="758" y="370.0" width="10" height="15" rx="1" fill="#0ea5e9" opacity="0.15"/><rect x="778" y="370.0" width="10" height="15" rx="1" fill="#0a0e1a" opacity="0.3"/><rect x="798" y="370.0" width="10" height="15" rx="1" fill="#0a0e1a" opacity="0.3"/><rect x="738" y="400.0" width="10" height="15" rx="1" fill="#0ea5e9" opacity="0.15"/><rect x="758" y="400.0" width="10" height="15" rx="1" fill="#0ea5e9" opacity="0.15"/><rect x="778" y="400.0" width="10" height="15" rx="1" fill="#0ea5e9" opacity="0.15"/><rect x="798" y="400.0" width="10" height="15" rx="1" fill="#0a0e1a" opacity="0.3"/><rect x="738" y="430.0" width="10" height="15" rx="1" fill="#0ea5e9" opacity="0.15"/><rect x="758" y="430.0" width="10" height="15" rx="1" fill="#0ea5e9" opacity="0.15"/><rect x="778" y="430.0" width="10" height="15" rx="1" fill="#0ea5e9" opacity="0.15"/><rect x="798" y="430.0" width="10" height="15" rx="1" fill="#0ea5e9" opacity="0.15"/><rect x="738" y="460.0" width="10" height="15" rx="1" fill="#0ea5e9" opacity="0.15"/><rect x="758" y="460.0" width="10" height="15" rx="1" fill="#0a0e1a" opacity="0.3"/><rect x="778" y="460.0" width="10" height="15" rx="1" fill="#0ea5e9" opacity="0.15"/><rect x="798" y="460.0" width="10" height="15" rx="1" fill="#0a0e1a" opacity="0.3"/><rect x="738" y="490.0" width="10" height="15" rx="1" fill="#0ea5e9" opacity="0.15"/><rect x="758" y="490.0" width="10" height="15" rx="1" fill="#0ea5e9" opacity="0.15"/><rect x="778" y="490.0" width="10" height="15" rx="1" fill="#0ea5e9" opacity="0.15"/><rect x="798" y="490.0" width="10" height="15" rx="1" fill="#0ea5e9" opacity="0.15"/><rect x="738" y="520.0" width="10" height="15" rx="1" fill="#0ea5e9" opacity="0.15"/><rect x="758" y="520.0" width="10" height="15" rx="1" fill="#0ea5e9" opacity="0.15"/><rect x="778" y="520.0" width="10" height="15" rx="1" fill="#0a0e1a" opacity="0.3"/><rect x="798" y="520.0" width="10" height="15" rx="1" fill="#0ea5e9" opacity="0.15"/><rect x="738" y="550.0" width="10" height="15" rx="1" fill="#0ea5e9" opacity="0.15"/><rect x="758" y="550.0" width="10" height="15" rx="1" fill="#0ea5e9" opacity="0.15"/><rect x="778" y="550.0" width="10" height="15" rx="1" fill="#0ea5e9" opacity="0.15"/><rect x="798" y="550.0" width="10" height="15" rx="1" fill="#0a0e1a" opacity="0.3"/><rect x="738" y="580.0" width="10" height="15" rx="1" fill="#0ea5e9" opacity="0.15"/><rect x="758" y="580.0" width="10" height="15" rx="1" fill="#0a0e1a" opacity="0.3"/><rect x="778" y="580.0" width="10" height="15" rx="1" fill="#0ea5e9" opacity="0.15"/><rect x="798" y="580.0" width="10" height="15" rx="1" fill="#0a0e1a" opacity="0.3"/>
    <rect x="840" y="390.0" width="90" height="210.0" rx="2" fill="#141c2e" stroke="#0ea5e9" stroke-opacity="0.2" stroke-width="0.5"/><rect x="848" y="400.0" width="10" height="15" rx="1" fill="#0ea5e9" opacity="0.15"/><rect x="868" y="400.0" width="10" height="15" rx="1" fill="#0ea5e9" opacity="0.15"/><rect x="888" y="400.0" width="10" height="15" rx="1" fill="#0ea5e9" opacity="0.15"/><rect x="908" y="400.0" width="10" height="15" rx="1" fill="#0ea5e9" opacity="0.15"/><rect x="848" y="430.0" width="10" height="15" rx="1" fill="#0a0e1a" opacity="0.3"/><rect x="868" y="430.0" width="10" height="15" rx="1" fill="#0ea5e9" opacity="0.15"/><rect x="888" y="430.0" width="10" height="15" rx="1" fill="#0ea5e9" opacity="0.15"/><rect x="908" y="430.0" width="10" height="15" rx="1" fill="#0ea5e9" opacity="0.15"/><rect x="848" y="460.0" width="10" height="15" rx="1" fill="#0ea5e9" opacity="0.15"/><rect x="868" y="460.0" width="10" height="15" rx="1" fill="#0ea5e9" opacity="0.15"/><rect x="888" y="460.0" width="10" height="15" rx="1" fill="#0a0e1a" opacity="0.3"/><rect x="908" y="460.0" width="10" height="15" rx="1" fill="#0ea5e9" opacity="0.15"/><rect x="848" y="490.0" width="10" height="15" rx="1" fill="#0ea5e9" opacity="0.15"/><rect x="868" y="490.0" width="10" height="15" rx="1" fill="#0ea5e9" opacity="0.15"/><rect x="888" y="490.0" width="10" height="15" rx="1" fill="#0a0e1a" opacity="0.3"/><rect x="908" y="490.0" width="10" height="15" rx="1" fill="#0a0e1a" opacity="0.3"/><rect x="848" y="520.0" width="10" height="15" rx="1" fill="#0ea5e9" opacity="0.15"/><rect x="868" y="520.0" width="10" height="15" rx="1" fill="#0a0e1a" opacity="0.3"/><rect x="888" y="520.0" width="10" height="15" rx="1" fill="#0ea5e9" opacity="0.15"/><rect x="908" y="520.0" width="10" height="15" rx="1" fill="#0ea5e9" opacity="0.15"/><rect x="848" y="550.0" width="10" height="15" rx="1" fill="#0ea5e9" opacity="0.15"/><rect x="868" y="550.0" width="10" height="15" rx="1" fill="#0ea5e9" opacity="0.15"/><rect x="888" y="550.0" width="10" height="15" rx="1" fill="#0a0e1a" opacity="0.3"/><rect x="908" y="550.0" width="10" height="15" rx="1" fill="#0ea5e9" opacity="0.15"/><rect x="848" y="580.0" width="10" height="15" rx="1" fill="#0ea5e9" opacity="0.15"/><rect x="868" y="580.0" width="10" height="15" rx="1" fill="#0a0e1a" opacity="0.3"/><rect x="888" y="580.0" width="10" height="15" rx="1" fill="#0ea5e9" opacity="0.15"/><rect x="908" y="580.0" width="10" height="15" rx="1" fill="#0a0e1a" opacity="0.3"/>
    <rect x="950" y="315.0" width="74" height="285.0" rx="2" fill="#141c2e" stroke="#0ea5e9" stroke-opacity="0.2" stroke-width="0.5"/><rect x="958" y="325.0" width="10" height="15" rx="1" fill="#0a0e1a" opacity="0.3"/><rect x="978" y="325.0" width="10" height="15" rx="1" fill="#0ea5e9" opacity="0.15"/><rect x="998" y="325.0" width="10" height="15" rx="1" fill="#0a0e1a" opacity="0.3"/><rect x="958" y="355.0" width="10" height="15" rx="1" fill="#0ea5e9" opacity="0.15"/><rect x="978" y="355.0" width="10" height="15" rx="1" fill="#0a0e1a" opacity="0.3"/><rect x="998" y="355.0" width="10" height="15" rx="1" fill="#0ea5e9" opacity="0.15"/><rect x="958" y="385.0" width="10" height="15" rx="1" fill="#0a0e1a" opacity="0.3"/><rect x="978" y="385.0" width="10" height="15" rx="1" fill="#0ea5e9" opacity="0.15"/><rect x="998" y="385.0" width="10" height="15" rx="1" fill="#0a0e1a" opacity="0.3"/><rect x="958" y="415.0" width="10" height="15" rx="1" fill="#0ea5e9" opacity="0.15"/><rect x="978" y="415.0" width="10" height="15" rx="1" fill="#0a0e1a" opacity="0.3"/><rect x="998" y="415.0" width="10" height="15" rx="1" fill="#0a0e1a" opacity="0.3"/><rect x="958" y="445.0" width="10" height="15" rx="1" fill="#0ea5e9" opacity="0.15"/><rect x="978" y="445.0" width="10" height="15" rx="1" fill="#0a0e1a" opacity="0.3"/><rect x="998" y="445.0" width="10" height="15" rx="1" fill="#0a0e1a" opacity="0.3"/><rect x="958" y="475.0" width="10" height="15" rx="1" fill="#0a0e1a" opacity="0.3"/><rect x="978" y="475.0" width="10" height="15" rx="1" fill="#0ea5e9" opacity="0.15"/><rect x="998" y="475.0" width="10" height="15" rx="1" fill="#0a0e1a" opacity="0.3"/><rect x="958" y="505.0" width="10" height="15" rx="1" fill="#0ea5e9" opacity="0.15"/><rect x="978" y="505.0" width="10" height="15" rx="1" fill="#0ea5e9" opacity="0.15"/><rect x="998" y="505.0" width="10" height="15" rx="1" fill="#0a0e1a" opacity="0.3"/><rect x="958" y="535.0" width="10" height="15" rx="1" fill="#0ea5e9" opacity="0.15"/><rect x="978" y="535.0" width="10" height="15" rx="1" fill="#0a0e1a" opacity="0.3"/><rect x="998" y="535.0" width="10" height="15" rx="1" fill="#0a0e1a" opacity="0.3"/><rect x="958" y="565.0" width="10" height="15" rx="1" fill="#0ea5e9" opacity="0.15"/><rect x="978" y="565.0" width="10" height="15" rx="1" fill="#0a0e1a" opacity="0.3"/><rect x="998" y="565.0" width="10" height="15" rx="1" fill="#0ea5e9" opacity="0.15"/>
    <rect x="1060" y="360.0" width="86" height="240.0" rx="2" fill="#141c2e" stroke="#0ea5e9" stroke-opacity="0.2" stroke-width="0.5"/><rect x="1068" y="370.0" width="10" height="15" rx="1" fill="#0a0e1a" opacity="0.3"/><rect x="1088" y="370.0" width="10" height="15" rx="1" fill="#0ea5e9" opacity="0.15"/><rect x="1108" y="370.0" width="10" height="15" rx="1" fill="#0ea5e9" opacity="0.15"/><rect x="1128" y="370.0" width="10" height="15" rx="1" fill="#0ea5e9" opacity="0.15"/><rect x="1068" y="400.0" width="10" height="15" rx="1" fill="#0a0e1a" opacity="0.3"/><rect x="1088" y="400.0" width="10" height="15" rx="1" fill="#0a0e1a" opacity="0.3"/><rect x="1108" y="400.0" width="10" height="15" rx="1" fill="#0ea5e9" opacity="0.15"/><rect x="1128" y="400.0" width="10" height="15" rx="1" fill="#0a0e1a" opacity="0.3"/><rect x="1068" y="430.0" width="10" height="15" rx="1" fill="#0a0e1a" opacity="0.3"/><rect x="1088" y="430.0" width="10" height="15" rx="1" fill="#0a0e1a" opacity="0.3"/><rect x="1108" y="430.0" width="10" height="15" rx="1" fill="#0a0e1a" opacity="0.3"/><rect x="1128" y="430.0" width="10" height="15" rx="1" fill="#0ea5e9" opacity="0.15"/><rect x="1068" y="460.0" width="10" height="15" rx="1" fill="#0ea5e9" opacity="0.15"/><rect x="1088" y="460.0" width="10" height="15" rx="1" fill="#0ea5e9" opacity="0.15"/><rect x="1108" y="460.0" width="10" height="15" rx="1" fill="#0ea5e9" opacity="0.15"/><rect x="1128" y="460.0" width="10" height="15" rx="1" fill="#0a0e1a" opacity="0.3"/><rect x="1068" y="490.0" width="10" height="15" rx="1" fill="#0ea5e9" opacity="0.15"/><rect x="1088" y="490.0" width="10" height="15" rx="1" fill="#0ea5e9" opacity="0.15"/><rect x="1108" y="490.0" width="10" height="15" rx="1" fill="#0a0e1a" opacity="0.3"/><rect x="1128" y="490.0" width="10" height="15" rx="1" fill="#0a0e1a" opacity="0.3"/><rect x="1068" y="520.0" width="10" height="15" rx="1" fill="#0a0e1a" opacity="0.3"/><rect x="1088" y="520.0" width="10" height="15" rx="1" fill="#0ea5e9" opacity="0.15"/><rect x="1108" y="520.0" width="10" height="15" rx="1" fill="#0ea5e9" opacity="0.15"/><rect x="1128" y="520.0" width="10" height="15" rx="1" fill="#0ea5e9" opacity="0.15"/><rect x="1068" y="550.0" width="10" height="15" rx="1" fill="#0ea5e9" opacity="0.15"/><rect x="1088" y="550.0" width="10" height="15" rx="1" fill="#0a0e1a" opacity="0.3"/><rect x="1108" y="550.0" width="10" height="15" rx="1" fill="#0ea5e9" opacity="0.15"/><rect x="1128" y="550.0" width="10" height="15" rx="1" fill="#0a0e1a" opacity="0.3"/><rect x="1068" y="580.0" width="10" height="15" rx="1" fill="#0a0e1a" opacity="0.3"/><rect x="1088" y="580.0" width="10" height="15" rx="1" fill="#0ea5e9" opacity="0.15"/><rect x="1108" y="580.0" width="10" height="15" rx="1" fill="#0a0e1a" opacity="0.3"/><rect x="1128" y="580.0" width="10" height="15" rx="1" fill="#0ea5e9" opacity="0.15"/>
  <circle cx="306" cy="273" r="1.5539353138896908" fill="#0ea5e9" opacity="0.125274614799396"/>
<circle cx="1153" cy="635" r="2.2000157344517057" fill="#0ea5e9" opacity="0.28227792967465704"/>
<circle cx="74" cy="694" r="2.75165437611415" fill="#0ea5e9" opacity="0.1616337154457326"/>
<circle cx="1063" cy="213" r="2.495687281962499" fill="#0ea5e9" opacity="0.18866261537262002"/>
<circle cx="131" cy="265" r="1.9897754398865337" fill="#0ea5e9" opacity="0.13382309878114257"/>
<circle cx="1043" cy="673" r="2.1878595362754463" fill="#0ea5e9" opacity="0.2584859502808553"/>
<circle cx="44" cy="389" r="2.8678488033484317" fill="#0ea5e9" opacity="0.13959486421981063"/>
<circle cx="881" cy="394" r="2.0927124423227017" fill="#0ea5e9" opacity="0.15183109364522832"/>
<circle cx="984" cy="94" r="1.0333788035417124" fill="#0ea5e9" opacity="0.12025977078183017"/>
<circle cx="556" cy="240" r="1.0796537238743795" fill="#0ea5e9" opacity="0.11814065787646172"/>
<circle cx="835" cy="538" r="1.572975600191514" fill="#0ea5e9" opacity="0.3137887228303752"/>
<circle cx="870" cy="453" r="2.4036212772470327" fill="#0ea5e9" opacity="0.12472834357739378"/>
<circle cx="1118" cy="570" r="2.2320941113334962" fill="#0ea5e9" opacity="0.18324032072036806"/>
<circle cx="654" cy="100" r="2.0226093965906626" fill="#0ea5e9" opacity="0.16095924818734836"/>
<circle cx="338" cy="569" r="1.6535005925704762" fill="#0ea5e9" opacity="0.2759311489037296"/>

</svg>