<?xml version="1.0" encoding="UTF-8"?>
<svg xmlns="http://www.w3.org/2000/svg" viewBox="0 0 1200 800" width="1200" height="800">
  <defs>
    <linearGradient id="bgGrad" x1="0%" y1="0%" x2="100%" y2="100%">
      <stop offset="0%" style="stop-color:#0a0e1a"/>
      <stop offset="100%" style="stop-color:#0d1321"/>
    </linearGradient>
    <linearGradient id="cyanGrad" x1="0%" y1="0%" x2="100%" y2="100%">
      <stop offset="0%" style="stop-color:#0ea5e9"/>
      <stop offset="100%" style="stop-color:#06b6d4"/>
    </linearGradient>
    <linearGradient id="glowGrad" x1="0%" y1="0%" x2="0%" y2="100%">
      <stop offset="0%" style="stop-color:#0ea5e9;stop-opacity:0.3"/>
      <stop offset="100%" style="stop-color:#0ea5e9;stop-opacity:0"/>
    </linearGradient>
    <filter id="glow">
      <feGaussianBlur stdDeviation="4" result="coloredBlur"/>
      <feMerge><feMergeNode in="coloredBlur"/><feMergeNode in="SourceGraphic"/></feMerge>
    </filter>
    <filter id="softGlow">
      <feGaussianBlur stdDeviation="8" result="coloredBlur"/>
      <feMerge><feMergeNode in="coloredBlur"/><feMergeNode in="SourceGraphic"/></feMerge>
    </filter>
  </defs>
  <rect width="1200" height="800" fill="url(#bgGrad)"/>

  <line x1="0" y1="0" x2="0" y2="800" stroke="#0ea5e9" stroke-opacity="0.03" stroke-width="0.5"/>
<line x1="60" y1="0" x2="60" y2="800" stroke="#0ea5e9" stroke-opacity="0.03" stroke-width="0.5"/>
<line x1="120" y1="0" x2="120" y2="800" stroke="#0ea5e9" stroke-opacity="0.03" stroke-width="0.5"/>
<line x1="180" y1="0" x2="180" y2="800" stroke="#0ea5e9" stroke-opacity="0.03" stroke-width="0.5"/>
<line x1="240" y1="0" x2="240" y2="800" stroke="#0ea5e9" stroke-opacity="0.03" stroke-width="0.5"/>
<line x1="300" y1="0" x2="300" y2="800" stroke="#0ea5e9" stroke-opacity="0.03" stroke-width="0.5"/>
<line x1="360" y1="0" x2="360" y2="800" stroke="#0ea5e9" stroke-opacity="0.03" stroke-width="0.5"/>
<line x1="420" y1="0" x2="420" y2="800" stroke="#0ea5e9" stroke-opacity="0.03" stroke-width="0.5"/>
<line x1="480" y1="0" x2="480" y2="800" stroke="#0ea5e9" stroke-opacity="0.03" stroke-width="0.5"/>
<line x1="540" y1="0" x2="540" y2="800" stroke="#0ea5e9" stroke-opacity="0.03" stroke-width="0.5"/>
<line x1="600" y1="0" x2="600" y2="800" stroke="#0ea5e9" stroke-opacity="0.03" stroke-width="0.5"/>
<line x1="660" y1="0" x2="660" y2="800" stroke="#0ea5e9" stroke-opacity="0.03" stroke-width="0.5"/>
<line x1="720" y1="0" x2="720" y2="800" stroke="#0ea5e9" stroke-opacity="0.03" stroke-width="0.5"/>
<line x1="780" y1="0" x2="780" y2="800" stroke="#0ea5e9" stroke-opacity="0.03" stroke-width="0.5"/>
<line x1="840" y1="0" x2="840" y2="800" stroke="#0ea5e9" stroke-opacity="0.03" stroke-width="0.5"/>
<line x1="900" y1="0" x2="900" y2="800" stroke="#0ea5e9" stroke-opacity="0.03" stroke-width="0.5"/>
<line x1="960" y1="0" x2="960" y2="800" stroke="#0ea5e9" stroke-opacity="0.03" stroke-width="0.5"/>
<line x1="1020" y1="0" x2="1020" y2="800" stroke="#0ea5e9" stroke-opacity="0.03" stroke-width="0.5"/>
<line x1="1080" y1="0" x2="1080" y2="800" stroke="#0ea5e9" stroke-opacity="0.03" stroke-width="0.5"/>
<line x1="1140" y1="0" x2="1140" y2="800" stroke="#0ea5e9" stroke-opacity="0.03" stroke-width="0.5"/>
<line x1="1200" y1="0" x2="1200" y2="800" stroke="#0ea5e9" stroke-opacity="0.03" stroke-width="0.5"/>
<line x1="0" y1="0" x2="1200" y2="0" stroke="#0ea5e9" stroke-opacity="0.03" stroke-width="0.5"/>
<line x1="0" y1="60" x2="1200" y2="60" stroke="#0ea5e9" stroke-opacity="0.03" stroke-width="0.5"/>
<line x1="0" y1="120" x2="1200" y2="120" stroke="#0ea5e9" stroke-opacity="0.03" stroke-width="0.5"/>
<line x1="0" y1="180" x2="1200" y2="180" stroke="#0ea5e9" stroke-opacity="0.03" stroke-width="0.5"/>
<line x1="0" y1="240" x2="1200" y2="240" stroke="#0ea5e9" stroke-opacity="0.03" stroke-width="0.5"/>
<line x1="0" y1="300" x2="1200" y2="300" stroke="#0ea5e9" stroke-opacity="0.03" stroke-width="0.5"/>
<line x1="0" y1="360" x2="1200" y2="360" stroke="#0ea5e9" stroke-opacity="0.03" stroke-width="0.5"/>
<line x1="0" y1="420" x2="1200" y2="420" stroke="#0ea5e9" stroke-opacity="0.03" stroke-width="0.5"/>
<line x1="0" y1="480" x2="1200" y2="480" stroke="#0ea5e9" stroke-opacity="0.03" stroke-width="0.5"/>
<line x1="0" y1="540" x2="1200" y2="540" stroke="#0ea5e9" stroke-opacity="0.03" stroke-width="0.5"/>
<line x1="0" y1="600" x2="1200" y2="600" stroke="#0ea5e9" stroke-opacity="0.03" stroke-width="0.5"/>
<line x1="0" y1="660" x2="1200" y2="660" stroke="#0ea5e9" stroke-opacity="0.03" stroke-width="0.5"/>
<line x1="0" y1="720" x2="1200" y2="720" stroke="#0ea5e9" stroke-opacity="0.03" stroke-width="0.5"/>
<line x1="0" y1="780" x2="1200" y2="780" stroke="#0ea5e9" stroke-opacity="0.03" stroke-width="0.5"/>
  <!-- Large envelope -->
  <g transform="translate(400,350)">
    <rect x="-200" y="-120" width="400" height="240" rx="8" fill="#141c2e" stroke="#0ea5e9" stroke-opacity="0.4" stroke-width="1"/>
    <polyline points="-200,-120 0,40 200,-120" fill="none" stroke="#0ea5e9" stroke-opacity="0.3" stroke-width="1"/>
    <polyline points="-200,120 -50,10" fill="none" stroke="#0ea5e9" stroke-opacity="0.15" stroke-width="0.5"/>
    <polyline points="200,120 50,10" fill="none" stroke="#0ea5e9" stroke-opacity="0.15" stroke-width="0.5"/>
    <!-- @ symbol -->
    <text x="0" y="0" font-family="sans-serif" font-size="40" fill="#0ea5e9" opacity="0.15" text-anchor="middle">@</text>
  </g>
  <!-- Chat bubbles -->
  <g transform="translate(850,300)">
    <rect x="-80" y="-40" width="160" height="60" rx="20" fill="#141c2e" stroke="#0ea5e9" stroke-opacity="0.3" stroke-width="1"/>
    <rect x="-60" y="-22" width="90" height="3" rx="1" fill="#0ea5e9" opacity="0.3"/>
    <rect x="-60" y="-12" width="60" height="3" rx="1" fill="#0ea5e9" opacity="0.2"/>
  </g>
  <g transform="translate(900,400)">
    <rect x="-80" y="-30" width="140" height="50" rx="20" fill="#0ea5e9" opacity="0.1" stroke="#0ea5e9" stroke-opacity="0.3" stroke-width="1"/>
    <rect x="-60" y="-15" width="80" height="3" rx="1" fill="#0ea5e9" opacity="0.3"/>
  </g>
  <!-- Signal waves from envelope -->
  <circle cx="400" cy="350" r="250" fill="none" stroke="#0ea5e9" stroke-opacity="0.08" stroke-width="0.5"/><circle cx="400" cy="350" r="290" fill="none" stroke="#0ea5e9" stroke-opacity="0.065" stroke-width="0.5"/><circle cx="400" cy="350" r="330" fill="none" stroke="#0ea5e9" stroke-opacity="0.05" stroke-width="0.5"/><circle cx="400" cy="350" r="370" fill="none" stroke="#0ea5e9" stroke-opacity="0.035" stroke-width="0.5"/><circle cx="400" cy="350" r="410" fill="none" stroke="#0ea5e9" stroke-opacity="0.020000000000000004" stroke-width="0.5"/>
  <circle cx="88" cy="477" r="2.1955697934631053" fill="#0ea5e9" opacity="0.31098588005947864"/>
<circle cx="119" cy="270" r="2.4810821569597232" fill="#0ea5e9" opacity="0.2206796052432719"/>
<circle cx="499" cy="572" r="1.4345384203551068" fill="#0ea5e9" opacity="0.35911907280101696"/>
<circle cx="135" cy="163" r="2.007791697881869" fill="#0ea5e9" opacity="0.1867790354061757"/>
<circle cx="673" cy="611" r="2.1958353485545246" fill="#0ea5e9" opacity="0.30175957043107415"/>
<circle cx="676" cy="262" r="1.6035288702884065" fill="#0ea5e9" opacity="0.1429781302489986"/>
<circle cx="1087" cy="246" r="1.8271204128936074" fill="#0ea5e9" opacity="0.18254617615258165"/>
<circle cx="1160" cy="625" r="2.7594277819277657" fill="#0ea5e9" opacity="0.3734732996861634"/>
<circle cx="894" cy="589" r="1.991241574986042" fill="#0ea5e9" opacity="0.3916870706031058"/>
<circle cx="800" cy="557" r="1.6374689146326245" fill="#0ea5e9" opacity="0.22489739002643344"/>
<circle cx="325" cy="327" r="1.752920377014264" fill="#0ea5e9" opacity="0.3263248291714376"/>
<circle cx="989" cy="266" r="2.698681864520081" fill="#0ea5e9" opacity="0.19022092563854437"/>
<circle cx="315" cy="494" r="2.829482347631811" fill="#0ea5e9" opacity="0.2687157848760727"/>
<circle cx="873" cy="590" r="2.0599836280061714" fill="#0ea5e9" opacity="0.2165257146422383"/>
<circle cx="542" cy="228" r="1.6605259872482099" fill="#0ea5e9" opacity="0.12372113001844162"/>
<circle cx="941" cy="399" r="1.1849279930537273" fill="#0ea5e9" opacity="0.3173754136921606"/>
<circle cx="410" cy="72" r="1.5369231757099624" fill="#0ea5e9" opacity="0.3021015761903736"/>
<circle cx="100" cy="94" r="1.3763265878655107" fill="#0ea5e9" opacity="0.32850892526116304"/>
<circle cx="1164" cy="242" r="1.9587884129418296" fill="#0ea5e9" opacity="0.3608421554573614"/>
<circle cx="701" cy="330" r="2.914039521053346" fill="#0ea5e9" opacity="0.10460011186854785"/>

</svg>