<?xml version="1.0" encoding="UTF-8"?>
<svg xmlns="http://www.w3.org/2000/svg" viewBox="0 0 1200 800" width="1200" height="800">
  <defs>
    <linearGradient id="bgGrad" x1="0%" y1="0%" x2="100%" y2="100%">
      <stop offset="0%" style="stop-color:#0a0e1a"/>
      <stop offset="100%" style="stop-color:#0d1321"/>
    </linearGradient>
    <linearGradient id="cyanGrad" x1="0%" y1="0%" x2="100%" y2="100%">
      <stop offset="0%" style="stop-color:#0ea5e9"/>
      <stop offset="100%" style="stop-color:#06b6d4"/>
    </linearGradient>
    <linearGradient id="glowGrad" x1="0%" y1="0%" x2="0%" y2="100%">
      <stop offset="0%" style="stop-color:#0ea5e9;stop-opacity:0.3"/>
      <stop offset="100%" style="stop-color:#0ea5e9;stop-opacity:0"/>
    </linearGradient>
    <filter id="glow">
      <feGaussianBlur stdDeviation="4" result="coloredBlur"/>
      <feMerge><feMergeNode in="coloredBlur"/><feMergeNode in="SourceGraphic"/></feMerge>
    </filter>
    <filter id="softGlow">
      <feGaussianBlur stdDeviation="8" result="coloredBlur"/>
      <feMerge><feMergeNode in="coloredBlur"/><feMergeNode in="SourceGraphic"/></feMerge>
    </filter>
  </defs>
  <rect width="1200" height="800" fill="url(#bgGrad)"/>

  <line x1="0" y1="0" x2="0" y2="800" stroke="#0ea5e9" stroke-opacity="0.03" stroke-width="0.5"/>
<line x1="60" y1="0" x2="60" y2="800" stroke="#0ea5e9" stroke-opacity="0.03" stroke-width="0.5"/>
<line x1="120" y1="0" x2="120" y2="800" stroke="#0ea5e9" stroke-opacity="0.03" stroke-width="0.5"/>
<line x1="180" y1="0" x2="180" y2="800" stroke="#0ea5e9" stroke-opacity="0.03" stroke-width="0.5"/>
<line x1="240" y1="0" x2="240" y2="800" stroke="#0ea5e9" stroke-opacity="0.03" stroke-width="0.5"/>
<line x1="300" y1="0" x2="300" y2="800" stroke="#0ea5e9" stroke-opacity="0.03" stroke-width="0.5"/>
<line x1="360" y1="0" x2="360" y2="800" stroke="#0ea5e9" stroke-opacity="0.03" stroke-width="0.5"/>
<line x1="420" y1="0" x2="420" y2="800" stroke="#0ea5e9" stroke-opacity="0.03" stroke-width="0.5"/>
<line x1="480" y1="0" x2="480" y2="800" stroke="#0ea5e9" stroke-opacity="0.03" stroke-width="0.5"/>
<line x1="540" y1="0" x2="540" y2="800" stroke="#0ea5e9" stroke-opacity="0.03" stroke-width="0.5"/>
<line x1="600" y1="0" x2="600" y2="800" stroke="#0ea5e9" stroke-opacity="0.03" stroke-width="0.5"/>
<line x1="660" y1="0" x2="660" y2="800" stroke="#0ea5e9" stroke-opacity="0.03" stroke-width="0.5"/>
<line x1="720" y1="0" x2="720" y2="800" stroke="#0ea5e9" stroke-opacity="0.03" stroke-width="0.5"/>
<line x1="780" y1="0" x2="780" y2="800" stroke="#0ea5e9" stroke-opacity="0.03" stroke-width="0.5"/>
<line x1="840" y1="0" x2="840" y2="800" stroke="#0ea5e9" stroke-opacity="0.03" stroke-width="0.5"/>
<line x1="900" y1="0" x2="900" y2="800" stroke="#0ea5e9" stroke-opacity="0.03" stroke-width="0.5"/>
<line x1="960" y1="0" x2="960" y2="800" stroke="#0ea5e9" stroke-opacity="0.03" stroke-width="0.5"/>
<line x1="1020" y1="0" x2="1020" y2="800" stroke="#0ea5e9" stroke-opacity="0.03" stroke-width="0.5"/>
<line x1="1080" y1="0" x2="1080" y2="800" stroke="#0ea5e9" stroke-opacity="0.03" stroke-width="0.5"/>
<line x1="1140" y1="0" x2="1140" y2="800" stroke="#0ea5e9" stroke-opacity="0.03" stroke-width="0.5"/>
<line x1="1200" y1="0" x2="1200" y2="800" stroke="#0ea5e9" stroke-opacity="0.03" stroke-width="0.5"/>
<line x1="0" y1="0" x2="1200" y2="0" stroke="#0ea5e9" stroke-opacity="0.03" stroke-width="0.5"/>
<line x1="0" y1="60" x2="1200" y2="60" stroke="#0ea5e9" stroke-opacity="0.03" stroke-width="0.5"/>
<line x1="0" y1="120" x2="1200" y2="120" stroke="#0ea5e9" stroke-opacity="0.03" stroke-width="0.5"/>
<line x1="0" y1="180" x2="1200" y2="180" stroke="#0ea5e9" stroke-opacity="0.03" stroke-width="0.5"/>
<line x1="0" y1="240" x2="1200" y2="240" stroke="#0ea5e9" stroke-opacity="0.03" stroke-width="0.5"/>
<line x1="0" y1="300" x2="1200" y2="300" stroke="#0ea5e9" stroke-opacity="0.03" stroke-width="0.5"/>
<line x1="0" y1="360" x2="1200" y2="360" stroke="#0ea5e9" stroke-opacity="0.03" stroke-width="0.5"/>
<line x1="0" y1="420" x2="1200" y2="420" stroke="#0ea5e9" stroke-opacity="0.03" stroke-width="0.5"/>
<line x1="0" y1="480" x2="1200" y2="480" stroke="#0ea5e9" stroke-opacity="0.03" stroke-width="0.5"/>
<line x1="0" y1="540" x2="1200" y2="540" stroke="#0ea5e9" stroke-opacity="0.03" stroke-width="0.5"/>
<line x1="0" y1="600" x2="1200" y2="600" stroke="#0ea5e9" stroke-opacity="0.03" stroke-width="0.5"/>
<line x1="0" y1="660" x2="1200" y2="660" stroke="#0ea5e9" stroke-opacity="0.03" stroke-width="0.5"/>
<line x1="0" y1="720" x2="1200" y2="720" stroke="#0ea5e9" stroke-opacity="0.03" stroke-width="0.5"/>
<line x1="0" y1="780" x2="1200" y2="780" stroke="#0ea5e9" stroke-opacity="0.03" stroke-width="0.5"/>
  <line x1="880" y1="390" x2="1100" y2="390" stroke="#0ea5e9" stroke-opacity="0.15" stroke-width="1" stroke-dasharray="8,4"/><circle cx="1100" cy="390" r="3" fill="#0ea5e9" opacity="0.4"/><line x1="842" y1="530" x2="1033" y2="590" stroke="#0ea5e9" stroke-opacity="0.15" stroke-width="1" stroke-dasharray="8,4"/><circle cx="1033" cy="590" r="3" fill="#0ea5e9" opacity="0.4"/><line x1="740" y1="632" x2="850" y2="736" stroke="#0ea5e9" stroke-opacity="0.15" stroke-width="1" stroke-dasharray="8,4"/><circle cx="850" cy="736" r="3" fill="#0ea5e9" opacity="0.4"/><line x1="600" y1="670" x2="600" y2="790" stroke="#0ea5e9" stroke-opacity="0.15" stroke-width="1" stroke-dasharray="8,4"/><circle cx="600" cy="790" r="3" fill="#0ea5e9" opacity="0.4"/><line x1="460" y1="632" x2="350" y2="736" stroke="#0ea5e9" stroke-opacity="0.15" stroke-width="1" stroke-dasharray="8,4"/><circle cx="350" cy="736" r="3" fill="#0ea5e9" opacity="0.4"/><line x1="358" y1="530" x2="167" y2="590" stroke="#0ea5e9" stroke-opacity="0.15" stroke-width="1" stroke-dasharray="8,4"/><circle cx="167" cy="590" r="3" fill="#0ea5e9" opacity="0.4"/><line x1="320" y1="390" x2="100" y2="390" stroke="#0ea5e9" stroke-opacity="0.15" stroke-width="1" stroke-dasharray="8,4"/><circle cx="100" cy="390" r="3" fill="#0ea5e9" opacity="0.4"/><line x1="358" y1="250" x2="167" y2="190" stroke="#0ea5e9" stroke-opacity="0.15" stroke-width="1" stroke-dasharray="8,4"/><circle cx="167" cy="190" r="3" fill="#0ea5e9" opacity="0.4"/><line x1="460" y1="148" x2="350" y2="44" stroke="#0ea5e9" stroke-opacity="0.15" stroke-width="1" stroke-dasharray="8,4"/><circle cx="350" cy="44" r="3" fill="#0ea5e9" opacity="0.4"/><line x1="600" y1="110" x2="600" y2="-10" stroke="#0ea5e9" stroke-opacity="0.15" stroke-width="1" stroke-dasharray="8,4"/><circle cx="600" cy="-10" r="3" fill="#0ea5e9" opacity="0.4"/><line x1="740" y1="148" x2="850" y2="44" stroke="#0ea5e9" stroke-opacity="0.15" stroke-width="1" stroke-dasharray="8,4"/><circle cx="850" cy="44" r="3" fill="#0ea5e9" opacity="0.4"/><line x1="842" y1="250" x2="1033" y2="190" stroke="#0ea5e9" stroke-opacity="0.15" stroke-width="1" stroke-dasharray="8,4"/><circle cx="1033" cy="190" r="3" fill="#0ea5e9" opacity="0.4"/>
  <!-- Shield outer glow -->
  <path d="M600,120 L780,200 L780,420 Q780,560 600,660 Q420,560 420,420 L420,200 Z" fill="none" stroke="#0ea5e9" stroke-width="2" opacity="0.15" filter="url(#softGlow)"/>
  <!-- Shield fill -->
  <path d="M600,120 L780,200 L780,420 Q780,560 600,660 Q420,560 420,420 L420,200 Z" fill="#141c2e" stroke="#0ea5e9" stroke-width="1.5" opacity="0.9"/>
  <path d="M600,120 L780,200 L780,420 Q780,560 600,660 Q420,560 420,420 L420,200 Z" fill="url(#glowGrad)" opacity="0.3"/>
  <!-- Lock icon in center -->
  <rect x="575" y="360" width="50" height="40" rx="4" fill="none" stroke="#0ea5e9" stroke-width="2"/>
  <path d="M585,360 L585,340 Q585,320 600,320 Q615,320 615,340 L615,360" fill="none" stroke="#0ea5e9" stroke-width="2"/>
  <circle cx="600" cy="382" r="5" fill="#0ea5e9"/>
  <rect x="598" y="382" width="4" height="10" rx="1" fill="#0ea5e9"/>
  <!-- Hex pattern inside shield -->
  <text x="600" y="290" font-family="monospace" font-size="14" fill="#0ea5e9" opacity="0.3" text-anchor="middle">SECURE</text>
  <circle cx="696" cy="658" r="1.6278312901167193" fill="#0ea5e9" opacity="0.35440458385190066"/>
<circle cx="635" cy="539" r="1.6185693244173065" fill="#0ea5e9" opacity="0.22251787258576508"/>
<circle cx="844" cy="733" r="1.591310405051894" fill="#0ea5e9" opacity="0.13818633971774597"/>
<circle cx="881" cy="700" r="2.880727341460366" fill="#0ea5e9" opacity="0.3031953835818199"/>
<circle cx="376" cy="650" r="2.1382105097316186" fill="#0ea5e9" opacity="0.22182255062744888"/>
<circle cx="20" cy="331" r="1.5738274337378544" fill="#0ea5e9" opacity="0.2289664449969504"/>
<circle cx="679" cy="496" r="1.8835720336759059" fill="#0ea5e9" opacity="0.30268816995702996"/>
<circle cx="1066" cy="504" r="2.5874707982120038" fill="#0ea5e9" opacity="0.38794960110491095"/>
<circle cx="367" cy="694" r="1.1695910734502435" fill="#0ea5e9" opacity="0.254635602974565"/>
<circle cx="706" cy="115" r="2.6368469290733287" fill="#0ea5e9" opacity="0.3253414412622197"/>
<circle cx="655" cy="250" r="2.613125789152532" fill="#0ea5e9" opacity="0.1442061886737318"/>
<circle cx="114" cy="270" r="2.967872045563703" fill="#0ea5e9" opacity="0.2833821919182041"/>
<circle cx="169" cy="486" r="1.8288820219954387" fill="#0ea5e9" opacity="0.28892961422131413"/>
<circle cx="418" cy="755" r="2.39270850098101" fill="#0ea5e9" opacity="0.24831315070313112"/>
<circle cx="519" cy="171" r="2.3121160222235684" fill="#0ea5e9" opacity="0.10166344544140954"/>
<circle cx="238" cy="455" r="1.4376822736246389" fill="#0ea5e9" opacity="0.34123295685194294"/>
<circle cx="1080" cy="495" r="1.1004367702812818" fill="#0ea5e9" opacity="0.1747594838979915"/>
<circle cx="268" cy="487" r="1.2666782111140578" fill="#0ea5e9" opacity="0.23939297124947104"/>
<circle cx="1107" cy="592" r="2.190904636938839" fill="#0ea5e9" opacity="0.3850118825329468"/>
<circle cx="926" cy="647" r="2.630013014663368" fill="#0ea5e9" opacity="0.3676060889023055"/>

</svg>