<?xml version="1.0" encoding="UTF-8"?>
<svg xmlns="http://www.w3.org/2000/svg" viewBox="0 0 1200 800" width="1200" height="800">
  <defs>
    <linearGradient id="bgGrad" x1="0%" y1="0%" x2="100%" y2="100%">
      <stop offset="0%" style="stop-color:#0a0e1a"/>
      <stop offset="100%" style="stop-color:#0d1321"/>
    </linearGradient>
    <linearGradient id="cyanGrad" x1="0%" y1="0%" x2="100%" y2="100%">
      <stop offset="0%" style="stop-color:#0ea5e9"/>
      <stop offset="100%" style="stop-color:#06b6d4"/>
    </linearGradient>
    <linearGradient id="glowGrad" x1="0%" y1="0%" x2="0%" y2="100%">
      <stop offset="0%" style="stop-color:#0ea5e9;stop-opacity:0.3"/>
      <stop offset="100%" style="stop-color:#0ea5e9;stop-opacity:0"/>
    </linearGradient>
    <filter id="glow">
      <feGaussianBlur stdDeviation="4" result="coloredBlur"/>
      <feMerge><feMergeNode in="coloredBlur"/><feMergeNode in="SourceGraphic"/></feMerge>
    </filter>
    <filter id="softGlow">
      <feGaussianBlur stdDeviation="8" result="coloredBlur"/>
      <feMerge><feMergeNode in="coloredBlur"/><feMergeNode in="SourceGraphic"/></feMerge>
    </filter>
  </defs>
  <rect width="1200" height="800" fill="url(#bgGrad)"/>

  <line x1="0" y1="0" x2="0" y2="800" stroke="#0ea5e9" stroke-opacity="0.03" stroke-width="0.5"/>
<line x1="60" y1="0" x2="60" y2="800" stroke="#0ea5e9" stroke-opacity="0.03" stroke-width="0.5"/>
<line x1="120" y1="0" x2="120" y2="800" stroke="#0ea5e9" stroke-opacity="0.03" stroke-width="0.5"/>
<line x1="180" y1="0" x2="180" y2="800" stroke="#0ea5e9" stroke-opacity="0.03" stroke-width="0.5"/>
<line x1="240" y1="0" x2="240" y2="800" stroke="#0ea5e9" stroke-opacity="0.03" stroke-width="0.5"/>
<line x1="300" y1="0" x2="300" y2="800" stroke="#0ea5e9" stroke-opacity="0.03" stroke-width="0.5"/>
<line x1="360" y1="0" x2="360" y2="800" stroke="#0ea5e9" stroke-opacity="0.03" stroke-width="0.5"/>
<line x1="420" y1="0" x2="420" y2="800" stroke="#0ea5e9" stroke-opacity="0.03" stroke-width="0.5"/>
<line x1="480" y1="0" x2="480" y2="800" stroke="#0ea5e9" stroke-opacity="0.03" stroke-width="0.5"/>
<line x1="540" y1="0" x2="540" y2="800" stroke="#0ea5e9" stroke-opacity="0.03" stroke-width="0.5"/>
<line x1="600" y1="0" x2="600" y2="800" stroke="#0ea5e9" stroke-opacity="0.03" stroke-width="0.5"/>
<line x1="660" y1="0" x2="660" y2="800" stroke="#0ea5e9" stroke-opacity="0.03" stroke-width="0.5"/>
<line x1="720" y1="0" x2="720" y2="800" stroke="#0ea5e9" stroke-opacity="0.03" stroke-width="0.5"/>
<line x1="780" y1="0" x2="780" y2="800" stroke="#0ea5e9" stroke-opacity="0.03" stroke-width="0.5"/>
<line x1="840" y1="0" x2="840" y2="800" stroke="#0ea5e9" stroke-opacity="0.03" stroke-width="0.5"/>
<line x1="900" y1="0" x2="900" y2="800" stroke="#0ea5e9" stroke-opacity="0.03" stroke-width="0.5"/>
<line x1="960" y1="0" x2="960" y2="800" stroke="#0ea5e9" stroke-opacity="0.03" stroke-width="0.5"/>
<line x1="1020" y1="0" x2="1020" y2="800" stroke="#0ea5e9" stroke-opacity="0.03" stroke-width="0.5"/>
<line x1="1080" y1="0" x2="1080" y2="800" stroke="#0ea5e9" stroke-opacity="0.03" stroke-width="0.5"/>
<line x1="1140" y1="0" x2="1140" y2="800" stroke="#0ea5e9" stroke-opacity="0.03" stroke-width="0.5"/>
<line x1="1200" y1="0" x2="1200" y2="800" stroke="#0ea5e9" stroke-opacity="0.03" stroke-width="0.5"/>
<line x1="0" y1="0" x2="1200" y2="0" stroke="#0ea5e9" stroke-opacity="0.03" stroke-width="0.5"/>
<line x1="0" y1="60" x2="1200" y2="60" stroke="#0ea5e9" stroke-opacity="0.03" stroke-width="0.5"/>
<line x1="0" y1="120" x2="1200" y2="120" stroke="#0ea5e9" stroke-opacity="0.03" stroke-width="0.5"/>
<line x1="0" y1="180" x2="1200" y2="180" stroke="#0ea5e9" stroke-opacity="0.03" stroke-width="0.5"/>
<line x1="0" y1="240" x2="1200" y2="240" stroke="#0ea5e9" stroke-opacity="0.03" stroke-width="0.5"/>
<line x1="0" y1="300" x2="1200" y2="300" stroke="#0ea5e9" stroke-opacity="0.03" stroke-width="0.5"/>
<line x1="0" y1="360" x2="1200" y2="360" stroke="#0ea5e9" stroke-opacity="0.03" stroke-width="0.5"/>
<line x1="0" y1="420" x2="1200" y2="420" stroke="#0ea5e9" stroke-opacity="0.03" stroke-width="0.5"/>
<line x1="0" y1="480" x2="1200" y2="480" stroke="#0ea5e9" stroke-opacity="0.03" stroke-width="0.5"/>
<line x1="0" y1="540" x2="1200" y2="540" stroke="#0ea5e9" stroke-opacity="0.03" stroke-width="0.5"/>
<line x1="0" y1="600" x2="1200" y2="600" stroke="#0ea5e9" stroke-opacity="0.03" stroke-width="0.5"/>
<line x1="0" y1="660" x2="1200" y2="660" stroke="#0ea5e9" stroke-opacity="0.03" stroke-width="0.5"/>
<line x1="0" y1="720" x2="1200" y2="720" stroke="#0ea5e9" stroke-opacity="0.03" stroke-width="0.5"/>
<line x1="0" y1="780" x2="1200" y2="780" stroke="#0ea5e9" stroke-opacity="0.03" stroke-width="0.5"/>
  <!-- Outer ring -->
  <circle cx="600" cy="400" r="350" fill="none" stroke="#0ea5e9" stroke-opacity="0.08" stroke-width="1"/>
  <circle cx="600" cy="400" r="300" fill="none" stroke="#0ea5e9" stroke-opacity="0.05" stroke-width="0.5" stroke-dasharray="8,4"/>
  <!-- Pentagon outlines -->
  <polygon points="600,150 838,323 747,602 453,602 362,323" fill="#141c2e" stroke="#0ea5e9" stroke-opacity="0.4" stroke-width="1.5"/>
  <polygon points="600,150 838,323 747,602 453,602 362,323" fill="url(#glowGrad)" opacity="0.15"/>
  <polygon points="600,250 743,354 688,521 512,521 457,354" fill="none" stroke="#0ea5e9" stroke-opacity="0.2" stroke-width="1"/>
  <!-- Connection lines from vertices -->
  <line x1="600" y1="400" x2="600" y2="150" stroke="#0ea5e9" stroke-opacity="0.15" stroke-width="0.5"/><line x1="600" y1="400" x2="838" y2="323" stroke="#0ea5e9" stroke-opacity="0.15" stroke-width="0.5"/><line x1="600" y1="400" x2="747" y2="602" stroke="#0ea5e9" stroke-opacity="0.15" stroke-width="0.5"/><line x1="600" y1="400" x2="453" y2="602" stroke="#0ea5e9" stroke-opacity="0.15" stroke-width="0.5"/><line x1="600" y1="400" x2="362" y2="323" stroke="#0ea5e9" stroke-opacity="0.15" stroke-width="0.5"/>
  <!-- Center point -->
  <circle cx="600" cy="400" r="8" fill="#0ea5e9" opacity="0.5" filter="url(#glow)"/>
  <circle cx="600" cy="400" r="20" fill="none" stroke="#0ea5e9" stroke-opacity="0.3" stroke-width="1"/>
  <!-- Vertex markers -->
  <circle cx="600" cy="150" r="6" fill="#0ea5e9" opacity="0.4" filter="url(#glow)"/><circle cx="838" cy="323" r="6" fill="#0ea5e9" opacity="0.4" filter="url(#glow)"/><circle cx="747" cy="602" r="6" fill="#0ea5e9" opacity="0.4" filter="url(#glow)"/><circle cx="453" cy="602" r="6" fill="#0ea5e9" opacity="0.4" filter="url(#glow)"/><circle cx="362" cy="323" r="6" fill="#0ea5e9" opacity="0.4" filter="url(#glow)"/>
  <!-- Star in center -->
  <text x="600" y="405" font-family="sans-serif" font-size="24" fill="#0ea5e9" opacity="0.4" text-anchor="middle">★</text>
  <circle cx="583" cy="659" r="2.266153448602031" fill="#0ea5e9" opacity="0.2645069302145082"/>
<circle cx="685" cy="410" r="2.989255511721847" fill="#0ea5e9" opacity="0.2591670512293974"/>
<circle cx="949" cy="537" r="2.2108535830706257" fill="#0ea5e9" opacity="0.1297535385037126"/>
<circle cx="254" cy="690" r="2.301833329762611" fill="#0ea5e9" opacity="0.3306888190314216"/>
<circle cx="460" cy="460" r="1.903109831930563" fill="#0ea5e9" opacity="0.16854807230937535"/>
<circle cx="714" cy="484" r="1.7974603685139066" fill="#0ea5e9" opacity="0.3188837522903514"/>
<circle cx="660" cy="457" r="1.6250471422837356" fill="#0ea5e9" opacity="0.17646693894483378"/>
<circle cx="332" cy="723" r="2.845970071468769" fill="#0ea5e9" opacity="0.12013999244099433"/>
<circle cx="194" cy="115" r="1.8637530371034805" fill="#0ea5e9" opacity="0.3233766907575637"/>
<circle cx="783" cy="153" r="2.1127414712307004" fill="#0ea5e9" opacity="0.27593952482184314"/>
<circle cx="1170" cy="595" r="1.65929196283241" fill="#0ea5e9" opacity="0.1366693856063678"/>
<circle cx="744" cy="701" r="2.8822597377044596" fill="#0ea5e9" opacity="0.22688105672916503"/>
<circle cx="125" cy="314" r="2.200820182449354" fill="#0ea5e9" opacity="0.2054938557079447"/>
<circle cx="1059" cy="237" r="1.3094603517165229" fill="#0ea5e9" opacity="0.2446568188613166"/>
<circle cx="241" cy="378" r="2.69074683720269" fill="#0ea5e9" opacity="0.21026831518460506"/>
<circle cx="590" cy="607" r="1.4523181886556948" fill="#0ea5e9" opacity="0.2287337232645344"/>
<circle cx="1168" cy="656" r="2.2271465610709296" fill="#0ea5e9" opacity="0.2928097491489494"/>
<circle cx="73" cy="643" r="2.858168581989873" fill="#0ea5e9" opacity="0.34883823698789895"/>
<circle cx="567" cy="49" r="1.3608321439217088" fill="#0ea5e9" opacity="0.31080963185968147"/>
<circle cx="652" cy="367" r="1.7020468414739636" fill="#0ea5e9" opacity="0.15442166746377062"/>

</svg>