<?xml version="1.0" encoding="UTF-8"?>
<svg xmlns="http://www.w3.org/2000/svg" viewBox="0 0 1200 800" width="1200" height="800">
  <defs>
    <linearGradient id="bgGrad" x1="0%" y1="0%" x2="100%" y2="100%">
      <stop offset="0%" style="stop-color:#0a0e1a"/>
      <stop offset="100%" style="stop-color:#0d1321"/>
    </linearGradient>
    <linearGradient id="cyanGrad" x1="0%" y1="0%" x2="100%" y2="100%">
      <stop offset="0%" style="stop-color:#0ea5e9"/>
      <stop offset="100%" style="stop-color:#06b6d4"/>
    </linearGradient>
    <linearGradient id="glowGrad" x1="0%" y1="0%" x2="0%" y2="100%">
      <stop offset="0%" style="stop-color:#0ea5e9;stop-opacity:0.3"/>
      <stop offset="100%" style="stop-color:#0ea5e9;stop-opacity:0"/>
    </linearGradient>
    <filter id="glow">
      <feGaussianBlur stdDeviation="4" result="coloredBlur"/>
      <feMerge><feMergeNode in="coloredBlur"/><feMergeNode in="SourceGraphic"/></feMerge>
    </filter>
    <filter id="softGlow">
      <feGaussianBlur stdDeviation="8" result="coloredBlur"/>
      <feMerge><feMergeNode in="coloredBlur"/><feMergeNode in="SourceGraphic"/></feMerge>
    </filter>
  </defs>
  <rect width="1200" height="800" fill="url(#bgGrad)"/>

  <line x1="0" y1="0" x2="0" y2="800" stroke="#0ea5e9" stroke-opacity="0.03" stroke-width="0.5"/>
<line x1="60" y1="0" x2="60" y2="800" stroke="#0ea5e9" stroke-opacity="0.03" stroke-width="0.5"/>
<line x1="120" y1="0" x2="120" y2="800" stroke="#0ea5e9" stroke-opacity="0.03" stroke-width="0.5"/>
<line x1="180" y1="0" x2="180" y2="800" stroke="#0ea5e9" stroke-opacity="0.03" stroke-width="0.5"/>
<line x1="240" y1="0" x2="240" y2="800" stroke="#0ea5e9" stroke-opacity="0.03" stroke-width="0.5"/>
<line x1="300" y1="0" x2="300" y2="800" stroke="#0ea5e9" stroke-opacity="0.03" stroke-width="0.5"/>
<line x1="360" y1="0" x2="360" y2="800" stroke="#0ea5e9" stroke-opacity="0.03" stroke-width="0.5"/>
<line x1="420" y1="0" x2="420" y2="800" stroke="#0ea5e9" stroke-opacity="0.03" stroke-width="0.5"/>
<line x1="480" y1="0" x2="480" y2="800" stroke="#0ea5e9" stroke-opacity="0.03" stroke-width="0.5"/>
<line x1="540" y1="0" x2="540" y2="800" stroke="#0ea5e9" stroke-opacity="0.03" stroke-width="0.5"/>
<line x1="600" y1="0" x2="600" y2="800" stroke="#0ea5e9" stroke-opacity="0.03" stroke-width="0.5"/>
<line x1="660" y1="0" x2="660" y2="800" stroke="#0ea5e9" stroke-opacity="0.03" stroke-width="0.5"/>
<line x1="720" y1="0" x2="720" y2="800" stroke="#0ea5e9" stroke-opacity="0.03" stroke-width="0.5"/>
<line x1="780" y1="0" x2="780" y2="800" stroke="#0ea5e9" stroke-opacity="0.03" stroke-width="0.5"/>
<line x1="840" y1="0" x2="840" y2="800" stroke="#0ea5e9" stroke-opacity="0.03" stroke-width="0.5"/>
<line x1="900" y1="0" x2="900" y2="800" stroke="#0ea5e9" stroke-opacity="0.03" stroke-width="0.5"/>
<line x1="960" y1="0" x2="960" y2="800" stroke="#0ea5e9" stroke-opacity="0.03" stroke-width="0.5"/>
<line x1="1020" y1="0" x2="1020" y2="800" stroke="#0ea5e9" stroke-opacity="0.03" stroke-width="0.5"/>
<line x1="1080" y1="0" x2="1080" y2="800" stroke="#0ea5e9" stroke-opacity="0.03" stroke-width="0.5"/>
<line x1="1140" y1="0" x2="1140" y2="800" stroke="#0ea5e9" stroke-opacity="0.03" stroke-width="0.5"/>
<line x1="1200" y1="0" x2="1200" y2="800" stroke="#0ea5e9" stroke-opacity="0.03" stroke-width="0.5"/>
<line x1="0" y1="0" x2="1200" y2="0" stroke="#0ea5e9" stroke-opacity="0.03" stroke-width="0.5"/>
<line x1="0" y1="60" x2="1200" y2="60" stroke="#0ea5e9" stroke-opacity="0.03" stroke-width="0.5"/>
<line x1="0" y1="120" x2="1200" y2="120" stroke="#0ea5e9" stroke-opacity="0.03" stroke-width="0.5"/>
<line x1="0" y1="180" x2="1200" y2="180" stroke="#0ea5e9" stroke-opacity="0.03" stroke-width="0.5"/>
<line x1="0" y1="240" x2="1200" y2="240" stroke="#0ea5e9" stroke-opacity="0.03" stroke-width="0.5"/>
<line x1="0" y1="300" x2="1200" y2="300" stroke="#0ea5e9" stroke-opacity="0.03" stroke-width="0.5"/>
<line x1="0" y1="360" x2="1200" y2="360" stroke="#0ea5e9" stroke-opacity="0.03" stroke-width="0.5"/>
<line x1="0" y1="420" x2="1200" y2="420" stroke="#0ea5e9" stroke-opacity="0.03" stroke-width="0.5"/>
<line x1="0" y1="480" x2="1200" y2="480" stroke="#0ea5e9" stroke-opacity="0.03" stroke-width="0.5"/>
<line x1="0" y1="540" x2="1200" y2="540" stroke="#0ea5e9" stroke-opacity="0.03" stroke-width="0.5"/>
<line x1="0" y1="600" x2="1200" y2="600" stroke="#0ea5e9" stroke-opacity="0.03" stroke-width="0.5"/>
<line x1="0" y1="660" x2="1200" y2="660" stroke="#0ea5e9" stroke-opacity="0.03" stroke-width="0.5"/>
<line x1="0" y1="720" x2="1200" y2="720" stroke="#0ea5e9" stroke-opacity="0.03" stroke-width="0.5"/>
<line x1="0" y1="780" x2="1200" y2="780" stroke="#0ea5e9" stroke-opacity="0.03" stroke-width="0.5"/>
  <line x1="600" y1="400" x2="775" y2="576" stroke="#0ea5e9" stroke-opacity="0.1" stroke-width="0.5" stroke-dasharray="3,3"/><line x1="600" y1="400" x2="774" y2="572" stroke="#0ea5e9" stroke-opacity="0.1" stroke-width="0.5" stroke-dasharray="3,3"/><line x1="600" y1="400" x2="815" y2="512" stroke="#0ea5e9" stroke-opacity="0.1" stroke-width="0.5" stroke-dasharray="3,3"/><line x1="600" y1="400" x2="409" y2="484" stroke="#0ea5e9" stroke-opacity="0.1" stroke-width="0.5" stroke-dasharray="3,3"/><line x1="600" y1="400" x2="519" y2="559" stroke="#0ea5e9" stroke-opacity="0.1" stroke-width="0.5" stroke-dasharray="3,3"/><line x1="600" y1="400" x2="331" y2="251" stroke="#0ea5e9" stroke-opacity="0.1" stroke-width="0.5" stroke-dasharray="3,3"/><line x1="600" y1="400" x2="750" y2="583" stroke="#0ea5e9" stroke-opacity="0.1" stroke-width="0.5" stroke-dasharray="3,3"/><line x1="600" y1="400" x2="808" y2="494" stroke="#0ea5e9" stroke-opacity="0.1" stroke-width="0.5" stroke-dasharray="3,3"/><line x1="600" y1="400" x2="363" y2="417" stroke="#0ea5e9" stroke-opacity="0.1" stroke-width="0.5" stroke-dasharray="3,3"/><line x1="600" y1="400" x2="654" y2="597" stroke="#0ea5e9" stroke-opacity="0.1" stroke-width="0.5" stroke-dasharray="3,3"/><line x1="600" y1="400" x2="413" y2="470" stroke="#0ea5e9" stroke-opacity="0.1" stroke-width="0.5" stroke-dasharray="3,3"/><line x1="600" y1="400" x2="387" y2="287" stroke="#0ea5e9" stroke-opacity="0.1" stroke-width="0.5" stroke-dasharray="3,3"/><line x1="600" y1="400" x2="820" y2="452" stroke="#0ea5e9" stroke-opacity="0.1" stroke-width="0.5" stroke-dasharray="3,3"/><line x1="600" y1="400" x2="780" y2="452" stroke="#0ea5e9" stroke-opacity="0.1" stroke-width="0.5" stroke-dasharray="3,3"/><line x1="600" y1="400" x2="633" y2="159" stroke="#0ea5e9" stroke-opacity="0.1" stroke-width="0.5" stroke-dasharray="3,3"/><line x1="600" y1="400" x2="529" y2="507" stroke="#0ea5e9" stroke-opacity="0.1" stroke-width="0.5" stroke-dasharray="3,3"/><line x1="600" y1="400" x2="702" y2="561" stroke="#0ea5e9" stroke-opacity="0.1" stroke-width="0.5" stroke-dasharray="3,3"/><line x1="600" y1="400" x2="283" y2="400" stroke="#0ea5e9" stroke-opacity="0.1" stroke-width="0.5" stroke-dasharray="3,3"/><line x1="600" y1="400" x2="890" y2="513" stroke="#0ea5e9" stroke-opacity="0.1" stroke-width="0.5" stroke-dasharray="3,3"/><line x1="600" y1="400" x2="377" y2="476" stroke="#0ea5e9" stroke-opacity="0.1" stroke-width="0.5" stroke-dasharray="3,3"/>
  <!-- Central processor -->
  <rect x="550" y="350" width="100" height="100" rx="6" fill="#141c2e" stroke="#0ea5e9" stroke-width="2"/>
  <rect x="550" y="350" width="100" height="100" rx="6" fill="url(#glowGrad)" opacity="0.2"/>
  <rect x="570" y="370" width="60" height="60" rx="3" fill="none" stroke="#0ea5e9" stroke-opacity="0.4" stroke-width="1"/>
  <!-- CPU pins -->
  <rect x="540" y="365" width="12" height="6" rx="1" fill="#0ea5e9" opacity="0.3"/><rect x="540" y="379" width="12" height="6" rx="1" fill="#0ea5e9" opacity="0.3"/><rect x="540" y="393" width="12" height="6" rx="1" fill="#0ea5e9" opacity="0.3"/><rect x="540" y="407" width="12" height="6" rx="1" fill="#0ea5e9" opacity="0.3"/><rect x="540" y="421" width="12" height="6" rx="1" fill="#0ea5e9" opacity="0.3"/><rect x="540" y="435" width="12" height="6" rx="1" fill="#0ea5e9" opacity="0.3"/>
  <rect x="648" y="365" width="12" height="6" rx="1" fill="#0ea5e9" opacity="0.3"/><rect x="648" y="379" width="12" height="6" rx="1" fill="#0ea5e9" opacity="0.3"/><rect x="648" y="393" width="12" height="6" rx="1" fill="#0ea5e9" opacity="0.3"/><rect x="648" y="407" width="12" height="6" rx="1" fill="#0ea5e9" opacity="0.3"/><rect x="648" y="421" width="12" height="6" rx="1" fill="#0ea5e9" opacity="0.3"/><rect x="648" y="435" width="12" height="6" rx="1" fill="#0ea5e9" opacity="0.3"/>
  <rect x="565" y="340" width="6" height="12" rx="1" fill="#0ea5e9" opacity="0.3"/><rect x="579" y="340" width="6" height="12" rx="1" fill="#0ea5e9" opacity="0.3"/><rect x="593" y="340" width="6" height="12" rx="1" fill="#0ea5e9" opacity="0.3"/><rect x="607" y="340" width="6" height="12" rx="1" fill="#0ea5e9" opacity="0.3"/><rect x="621" y="340" width="6" height="12" rx="1" fill="#0ea5e9" opacity="0.3"/><rect x="635" y="340" width="6" height="12" rx="1" fill="#0ea5e9" opacity="0.3"/>
  <rect x="565" y="448" width="6" height="12" rx="1" fill="#0ea5e9" opacity="0.3"/><rect x="579" y="448" width="6" height="12" rx="1" fill="#0ea5e9" opacity="0.3"/><rect x="593" y="448" width="6" height="12" rx="1" fill="#0ea5e9" opacity="0.3"/><rect x="607" y="448" width="6" height="12" rx="1" fill="#0ea5e9" opacity="0.3"/><rect x="621" y="448" width="6" height="12" rx="1" fill="#0ea5e9" opacity="0.3"/><rect x="635" y="448" width="6" height="12" rx="1" fill="#0ea5e9" opacity="0.3"/>
  <!-- Pulse rings -->
  <circle cx="600" cy="400" r="80" fill="none" stroke="#0ea5e9" stroke-opacity="0.1" stroke-width="1"/>
  <circle cx="600" cy="400" r="130" fill="none" stroke="#0ea5e9" stroke-opacity="0.07" stroke-width="0.5" stroke-dasharray="6,3"/>
  
    <rect x="767" y="568" width="16" height="16" rx="3" fill="#141c2e" stroke="#0ea5e9" stroke-opacity="0.3" stroke-width="0.5"/>
    <circle cx="775" cy="576" r="2" fill="#0ea5e9" opacity="0.5"/>
    <rect x="766" y="565" width="15" height="15" rx="3" fill="#141c2e" stroke="#0ea5e9" stroke-opacity="0.3" stroke-width="0.5"/>
    <circle cx="774" cy="572" r="2" fill="#0ea5e9" opacity="0.5"/>
    <rect x="804" y="501" width="21" height="21" rx="3" fill="#141c2e" stroke="#0ea5e9" stroke-opacity="0.3" stroke-width="0.5"/>
    <circle cx="815" cy="512" r="2" fill="#0ea5e9" opacity="0.5"/>
    <rect x="399" y="474" width="20" height="20" rx="3" fill="#141c2e" stroke="#0ea5e9" stroke-opacity="0.3" stroke-width="0.5"/>
    <circle cx="409" cy="484" r="2" fill="#0ea5e9" opacity="0.5"/>
    <rect x="507" y="547" width="24" height="24" rx="3" fill="#141c2e" stroke="#0ea5e9" stroke-opacity="0.3" stroke-width="0.5"/>
    <circle cx="519" cy="559" r="2" fill="#0ea5e9" opacity="0.5"/>
    <rect x="323" y="243" width="17" height="17" rx="3" fill="#141c2e" stroke="#0ea5e9" stroke-opacity="0.3" stroke-width="0.5"/>
    <circle cx="331" cy="251" r="2" fill="#0ea5e9" opacity="0.5"/>
    <rect x="738" y="570" width="25" height="25" rx="3" fill="#141c2e" stroke="#0ea5e9" stroke-opacity="0.3" stroke-width="0.5"/>
    <circle cx="750" cy="583" r="2" fill="#0ea5e9" opacity="0.5"/>
    <rect x="797" y="483" width="21" height="21" rx="3" fill="#141c2e" stroke="#0ea5e9" stroke-opacity="0.3" stroke-width="0.5"/>
    <circle cx="808" cy="494" r="2" fill="#0ea5e9" opacity="0.5"/>
    <rect x="353" y="408" width="19" height="19" rx="3" fill="#141c2e" stroke="#0ea5e9" stroke-opacity="0.3" stroke-width="0.5"/>
    <circle cx="363" cy="417" r="2" fill="#0ea5e9" opacity="0.5"/>
    <rect x="644" y="587" width="20" height="20" rx="3" fill="#141c2e" stroke="#0ea5e9" stroke-opacity="0.3" stroke-width="0.5"/>
    <circle cx="654" cy="597" r="2" fill="#0ea5e9" opacity="0.5"/>
    <rect x="401" y="458" width="25" height="25" rx="3" fill="#141c2e" stroke="#0ea5e9" stroke-opacity="0.3" stroke-width="0.5"/>
    <circle cx="413" cy="470" r="2" fill="#0ea5e9" opacity="0.5"/>
    <rect x="378" y="278" width="19" height="19" rx="3" fill="#141c2e" stroke="#0ea5e9" stroke-opacity="0.3" stroke-width="0.5"/>
    <circle cx="387" cy="287" r="2" fill="#0ea5e9" opacity="0.5"/>
    <rect x="808" y="440" width="24" height="24" rx="3" fill="#141c2e" stroke="#0ea5e9" stroke-opacity="0.3" stroke-width="0.5"/>
    <circle cx="820" cy="452" r="2" fill="#0ea5e9" opacity="0.5"/>
    <rect x="771" y="443" width="18" height="18" rx="3" fill="#141c2e" stroke="#0ea5e9" stroke-opacity="0.3" stroke-width="0.5"/>
    <circle cx="780" cy="452" r="2" fill="#0ea5e9" opacity="0.5"/>
    <rect x="623" y="150" width="19" height="19" rx="3" fill="#141c2e" stroke="#0ea5e9" stroke-opacity="0.3" stroke-width="0.5"/>
    <circle cx="633" cy="159" r="2" fill="#0ea5e9" opacity="0.5"/>
    <rect x="518" y="496" width="21" height="21" rx="3" fill="#141c2e" stroke="#0ea5e9" stroke-opacity="0.3" stroke-width="0.5"/>
    <circle cx="529" cy="507" r="2" fill="#0ea5e9" opacity="0.5"/>
    <rect x="693" y="552" width="18" height="18" rx="3" fill="#141c2e" stroke="#0ea5e9" stroke-opacity="0.3" stroke-width="0.5"/>
    <circle cx="702" cy="561" r="2" fill="#0ea5e9" opacity="0.5"/>
    <rect x="273" y="390" width="20" height="20" rx="3" fill="#141c2e" stroke="#0ea5e9" stroke-opacity="0.3" stroke-width="0.5"/>
    <circle cx="283" cy="400" r="2" fill="#0ea5e9" opacity="0.5"/>
    <rect x="882" y="505" width="15" height="15" rx="3" fill="#141c2e" stroke="#0ea5e9" stroke-opacity="0.3" stroke-width="0.5"/>
    <circle cx="890" cy="513" r="2" fill="#0ea5e9" opacity="0.5"/>
    <rect x="369" y="468" width="16" height="16" rx="3" fill="#141c2e" stroke="#0ea5e9" stroke-opacity="0.3" stroke-width="0.5"/>
    <circle cx="377" cy="476" r="2" fill="#0ea5e9" opacity="0.5"/>
  <circle cx="661" cy="609" r="1.8585685726016712" fill="#0ea5e9" opacity="0.2213268653515703"/>
<circle cx="875" cy="316" r="1.2303467453275965" fill="#0ea5e9" opacity="0.10625696770742465"/>
<circle cx="685" cy="195" r="2.6026443086209046" fill="#0ea5e9" opacity="0.2854375789912721"/>
<circle cx="761" cy="110" r="1.8734235591364556" fill="#0ea5e9" opacity="0.1317589400186758"/>
<circle cx="912" cy="623" r="1.8008996326321742" fill="#0ea5e9" opacity="0.12359412624485797"/>
<circle cx="655" cy="367" r="1.4431441177885027" fill="#0ea5e9" opacity="0.3337353605809794"/>
<circle cx="176" cy="542" r="2.266449333936373" fill="#0ea5e9" opacity="0.2591814462317945"/>
<circle cx="417" cy="377" r="1.702199469914721" fill="#0ea5e9" opacity="0.3874670046991452"/>
<circle cx="322" cy="261" r="1.2056090555555257" fill="#0ea5e9" opacity="0.17679046660051898"/>
<circle cx="375" cy="636" r="1.3057395780118597" fill="#0ea5e9" opacity="0.3277457140136712"/>
<circle cx="174" cy="201" r="2.9025842811591636" fill="#0ea5e9" opacity="0.28838463163551026"/>
<circle cx="970" cy="597" r="2.5197542992154967" fill="#0ea5e9" opacity="0.23467157709851894"/>
<circle cx="1176" cy="678" r="2.270596638121187" fill="#0ea5e9" opacity="0.2873565338325685"/>
<circle cx="667" cy="174" r="1.879525632683728" fill="#0ea5e9" opacity="0.240676325057912"/>
<circle cx="640" cy="301" r="2.182839513662042" fill="#0ea5e9" opacity="0.205582666786023"/>

</svg>