<?xml version="1.0" encoding="UTF-8"?>
<svg xmlns="http://www.w3.org/2000/svg" viewBox="0 0 1200 800" width="1200" height="800">
  <defs>
    <linearGradient id="bgGrad" x1="0%" y1="0%" x2="100%" y2="100%">
      <stop offset="0%" style="stop-color:#0a0e1a"/>
      <stop offset="100%" style="stop-color:#0d1321"/>
    </linearGradient>
    <linearGradient id="cyanGrad" x1="0%" y1="0%" x2="100%" y2="100%">
      <stop offset="0%" style="stop-color:#0ea5e9"/>
      <stop offset="100%" style="stop-color:#06b6d4"/>
    </linearGradient>
    <linearGradient id="glowGrad" x1="0%" y1="0%" x2="0%" y2="100%">
      <stop offset="0%" style="stop-color:#0ea5e9;stop-opacity:0.3"/>
      <stop offset="100%" style="stop-color:#0ea5e9;stop-opacity:0"/>
    </linearGradient>
    <filter id="glow">
      <feGaussianBlur stdDeviation="4" result="coloredBlur"/>
      <feMerge><feMergeNode in="coloredBlur"/><feMergeNode in="SourceGraphic"/></feMerge>
    </filter>
    <filter id="softGlow">
      <feGaussianBlur stdDeviation="8" result="coloredBlur"/>
      <feMerge><feMergeNode in="coloredBlur"/><feMergeNode in="SourceGraphic"/></feMerge>
    </filter>
  </defs>
  <rect width="1200" height="800" fill="url(#bgGrad)"/>

  <line x1="0" y1="0" x2="0" y2="800" stroke="#0ea5e9" stroke-opacity="0.03" stroke-width="0.5"/>
<line x1="60" y1="0" x2="60" y2="800" stroke="#0ea5e9" stroke-opacity="0.03" stroke-width="0.5"/>
<line x1="120" y1="0" x2="120" y2="800" stroke="#0ea5e9" stroke-opacity="0.03" stroke-width="0.5"/>
<line x1="180" y1="0" x2="180" y2="800" stroke="#0ea5e9" stroke-opacity="0.03" stroke-width="0.5"/>
<line x1="240" y1="0" x2="240" y2="800" stroke="#0ea5e9" stroke-opacity="0.03" stroke-width="0.5"/>
<line x1="300" y1="0" x2="300" y2="800" stroke="#0ea5e9" stroke-opacity="0.03" stroke-width="0.5"/>
<line x1="360" y1="0" x2="360" y2="800" stroke="#0ea5e9" stroke-opacity="0.03" stroke-width="0.5"/>
<line x1="420" y1="0" x2="420" y2="800" stroke="#0ea5e9" stroke-opacity="0.03" stroke-width="0.5"/>
<line x1="480" y1="0" x2="480" y2="800" stroke="#0ea5e9" stroke-opacity="0.03" stroke-width="0.5"/>
<line x1="540" y1="0" x2="540" y2="800" stroke="#0ea5e9" stroke-opacity="0.03" stroke-width="0.5"/>
<line x1="600" y1="0" x2="600" y2="800" stroke="#0ea5e9" stroke-opacity="0.03" stroke-width="0.5"/>
<line x1="660" y1="0" x2="660" y2="800" stroke="#0ea5e9" stroke-opacity="0.03" stroke-width="0.5"/>
<line x1="720" y1="0" x2="720" y2="800" stroke="#0ea5e9" stroke-opacity="0.03" stroke-width="0.5"/>
<line x1="780" y1="0" x2="780" y2="800" stroke="#0ea5e9" stroke-opacity="0.03" stroke-width="0.5"/>
<line x1="840" y1="0" x2="840" y2="800" stroke="#0ea5e9" stroke-opacity="0.03" stroke-width="0.5"/>
<line x1="900" y1="0" x2="900" y2="800" stroke="#0ea5e9" stroke-opacity="0.03" stroke-width="0.5"/>
<line x1="960" y1="0" x2="960" y2="800" stroke="#0ea5e9" stroke-opacity="0.03" stroke-width="0.5"/>
<line x1="1020" y1="0" x2="1020" y2="800" stroke="#0ea5e9" stroke-opacity="0.03" stroke-width="0.5"/>
<line x1="1080" y1="0" x2="1080" y2="800" stroke="#0ea5e9" stroke-opacity="0.03" stroke-width="0.5"/>
<line x1="1140" y1="0" x2="1140" y2="800" stroke="#0ea5e9" stroke-opacity="0.03" stroke-width="0.5"/>
<line x1="1200" y1="0" x2="1200" y2="800" stroke="#0ea5e9" stroke-opacity="0.03" stroke-width="0.5"/>
<line x1="0" y1="0" x2="1200" y2="0" stroke="#0ea5e9" stroke-opacity="0.03" stroke-width="0.5"/>
<line x1="0" y1="60" x2="1200" y2="60" stroke="#0ea5e9" stroke-opacity="0.03" stroke-width="0.5"/>
<line x1="0" y1="120" x2="1200" y2="120" stroke="#0ea5e9" stroke-opacity="0.03" stroke-width="0.5"/>
<line x1="0" y1="180" x2="1200" y2="180" stroke="#0ea5e9" stroke-opacity="0.03" stroke-width="0.5"/>
<line x1="0" y1="240" x2="1200" y2="240" stroke="#0ea5e9" stroke-opacity="0.03" stroke-width="0.5"/>
<line x1="0" y1="300" x2="1200" y2="300" stroke="#0ea5e9" stroke-opacity="0.03" stroke-width="0.5"/>
<line x1="0" y1="360" x2="1200" y2="360" stroke="#0ea5e9" stroke-opacity="0.03" stroke-width="0.5"/>
<line x1="0" y1="420" x2="1200" y2="420" stroke="#0ea5e9" stroke-opacity="0.03" stroke-width="0.5"/>
<line x1="0" y1="480" x2="1200" y2="480" stroke="#0ea5e9" stroke-opacity="0.03" stroke-width="0.5"/>
<line x1="0" y1="540" x2="1200" y2="540" stroke="#0ea5e9" stroke-opacity="0.03" stroke-width="0.5"/>
<line x1="0" y1="600" x2="1200" y2="600" stroke="#0ea5e9" stroke-opacity="0.03" stroke-width="0.5"/>
<line x1="0" y1="660" x2="1200" y2="660" stroke="#0ea5e9" stroke-opacity="0.03" stroke-width="0.5"/>
<line x1="0" y1="720" x2="1200" y2="720" stroke="#0ea5e9" stroke-opacity="0.03" stroke-width="0.5"/>
<line x1="0" y1="780" x2="1200" y2="780" stroke="#0ea5e9" stroke-opacity="0.03" stroke-width="0.5"/>
  <!-- Eye shape -->
  <g transform="translate(600,400)">
    <!-- Outer eye -->
    <path d="M-300,0 Q-150,-150 0,-150 Q150,-150 300,0 Q150,150 0,150 Q-150,150 -300,0 Z" fill="#141c2e" stroke="#0ea5e9" stroke-opacity="0.4" stroke-width="1.5"/>
    <path d="M-300,0 Q-150,-150 0,-150 Q150,-150 300,0 Q150,150 0,150 Q-150,150 -300,0 Z" fill="url(#glowGrad)" opacity="0.15"/>
    <!-- Iris -->
    <circle cx="0" cy="0" r="100" fill="#0a0e1a" stroke="#0ea5e9" stroke-opacity="0.5" stroke-width="1"/>
    <circle cx="0" cy="0" r="100" fill="url(#glowGrad)" opacity="0.2"/>
    <!-- Iris detail rings -->
    <circle cx="0" cy="0" r="80" fill="none" stroke="#0ea5e9" stroke-opacity="0.1" stroke-width="0.5"/>
    <circle cx="0" cy="0" r="60" fill="none" stroke="#0ea5e9" stroke-opacity="0.15" stroke-width="0.5"/>
    <!-- Pupil -->
    <circle cx="0" cy="0" r="40" fill="#0a0e1a" stroke="#0ea5e9" stroke-opacity="0.6" stroke-width="1"/>
    <circle cx="0" cy="0" r="20" fill="#0ea5e9" opacity="0.3" filter="url(#softGlow)"/>
    <circle cx="0" cy="0" r="8" fill="#0ea5e9" opacity="0.7" filter="url(#glow)"/>
    <!-- Scan lines through iris -->
    <line x1="-100" y1="-0" x2="100" y2="0" stroke="#0ea5e9" stroke-opacity="0.06" stroke-width="0.5"/><line x1="-97" y1="-26" x2="97" y2="26" stroke="#0ea5e9" stroke-opacity="0.06" stroke-width="0.5"/><line x1="-87" y1="-50" x2="87" y2="50" stroke="#0ea5e9" stroke-opacity="0.06" stroke-width="0.5"/><line x1="-71" y1="-71" x2="71" y2="71" stroke="#0ea5e9" stroke-opacity="0.06" stroke-width="0.5"/><line x1="-50" y1="-87" x2="50" y2="87" stroke="#0ea5e9" stroke-opacity="0.06" stroke-width="0.5"/><line x1="-26" y1="-97" x2="26" y2="97" stroke="#0ea5e9" stroke-opacity="0.06" stroke-width="0.5"/><line x1="-0" y1="-100" x2="0" y2="100" stroke="#0ea5e9" stroke-opacity="0.06" stroke-width="0.5"/><line x1="26" y1="-97" x2="-26" y2="97" stroke="#0ea5e9" stroke-opacity="0.06" stroke-width="0.5"/><line x1="50" y1="-87" x2="-50" y2="87" stroke="#0ea5e9" stroke-opacity="0.06" stroke-width="0.5"/><line x1="71" y1="-71" x2="-71" y2="71" stroke="#0ea5e9" stroke-opacity="0.06" stroke-width="0.5"/><line x1="87" y1="-50" x2="-87" y2="50" stroke="#0ea5e9" stroke-opacity="0.06" stroke-width="0.5"/><line x1="97" y1="-26" x2="-97" y2="26" stroke="#0ea5e9" stroke-opacity="0.06" stroke-width="0.5"/>
  </g>
  <!-- Data stream lines -->
  <line x1="382" y1="0" x2="1016" y2="800" stroke="#0ea5e9" stroke-opacity="0.04" stroke-width="0.5"/><line x1="1018" y1="0" x2="752" y2="800" stroke="#0ea5e9" stroke-opacity="0.04" stroke-width="0.5"/><line x1="1063" y1="0" x2="546" y2="800" stroke="#0ea5e9" stroke-opacity="0.04" stroke-width="0.5"/><line x1="169" y1="0" x2="869" y2="800" stroke="#0ea5e9" stroke-opacity="0.04" stroke-width="0.5"/><line x1="161" y1="0" x2="881" y2="800" stroke="#0ea5e9" stroke-opacity="0.04" stroke-width="0.5"/><line x1="369" y1="0" x2="1117" y2="800" stroke="#0ea5e9" stroke-opacity="0.04" stroke-width="0.5"/><line x1="601" y1="0" x2="657" y2="800" stroke="#0ea5e9" stroke-opacity="0.04" stroke-width="0.5"/><line x1="210" y1="0" x2="163" y2="800" stroke="#0ea5e9" stroke-opacity="0.04" stroke-width="0.5"/><line x1="671" y1="0" x2="605" y2="800" stroke="#0ea5e9" stroke-opacity="0.04" stroke-width="0.5"/><line x1="627" y1="0" x2="913" y2="800" stroke="#0ea5e9" stroke-opacity="0.04" stroke-width="0.5"/><line x1="872" y1="0" x2="341" y2="800" stroke="#0ea5e9" stroke-opacity="0.04" stroke-width="0.5"/><line x1="909" y1="0" x2="719" y2="800" stroke="#0ea5e9" stroke-opacity="0.04" stroke-width="0.5"/><line x1="915" y1="0" x2="86" y2="800" stroke="#0ea5e9" stroke-opacity="0.04" stroke-width="0.5"/><line x1="722" y1="0" x2="890" y2="800" stroke="#0ea5e9" stroke-opacity="0.04" stroke-width="0.5"/><line x1="562" y1="0" x2="117" y2="800" stroke="#0ea5e9" stroke-opacity="0.04" stroke-width="0.5"/>
  <circle cx="173" cy="707" r="2.275025075766597" fill="#0ea5e9" opacity="0.20899333919529473"/>
<circle cx="347" cy="51" r="1.2855589367250995" fill="#0ea5e9" opacity="0.2822718709962566"/>
<circle cx="917" cy="55" r="1.2524600486045085" fill="#0ea5e9" opacity="0.1707986141261057"/>
<circle cx="770" cy="390" r="1.7657088033775554" fill="#0ea5e9" opacity="0.2701733925172359"/>
<circle cx="334" cy="715" r="1.899845137429588" fill="#0ea5e9" opacity="0.21128935226503026"/>
<circle cx="929" cy="98" r="2.1478435566677914" fill="#0ea5e9" opacity="0.2588379644608869"/>
<circle cx="835" cy="341" r="2.299121473412063" fill="#0ea5e9" opacity="0.17488349592801938"/>
<circle cx="252" cy="46" r="2.471349718958855" fill="#0ea5e9" opacity="0.24971318807694007"/>
<circle cx="812" cy="595" r="1.2355219909813504" fill="#0ea5e9" opacity="0.3324893450594465"/>
<circle cx="933" cy="239" r="2.9927302243095215" fill="#0ea5e9" opacity="0.1856730633094474"/>
<circle cx="1025" cy="224" r="1.2452748438079417" fill="#0ea5e9" opacity="0.3558478871152968"/>
<circle cx="945" cy="196" r="2.797358061572461" fill="#0ea5e9" opacity="0.23353335782273654"/>
<circle cx="199" cy="718" r="2.9351224727261247" fill="#0ea5e9" opacity="0.39597239789274585"/>
<circle cx="731" cy="746" r="1.1298781566321423" fill="#0ea5e9" opacity="0.26265140836766876"/>
<circle cx="634" cy="181" r="2.4236182080144255" fill="#0ea5e9" opacity="0.37819733701695335"/>
<circle cx="376" cy="390" r="2.0175114903486016" fill="#0ea5e9" opacity="0.13640873652353708"/>
<circle cx="431" cy="162" r="1.473472368573741" fill="#0ea5e9" opacity="0.2482065812340767"/>
<circle cx="759" cy="587" r="2.144554814233052" fill="#0ea5e9" opacity="0.24022175178750246"/>
<circle cx="1149" cy="152" r="2.2238967252410418" fill="#0ea5e9" opacity="0.12586464449557982"/>
<circle cx="653" cy="427" r="2.999190087868774" fill="#0ea5e9" opacity="0.31566089796721586"/>

</svg>