<?xml version="1.0" encoding="UTF-8"?>
<svg xmlns="http://www.w3.org/2000/svg" viewBox="0 0 1200 800" width="1200" height="800">
  <defs>
    <linearGradient id="bgGrad" x1="0%" y1="0%" x2="100%" y2="100%">
      <stop offset="0%" style="stop-color:#0a0e1a"/>
      <stop offset="100%" style="stop-color:#0d1321"/>
    </linearGradient>
    <linearGradient id="cyanGrad" x1="0%" y1="0%" x2="100%" y2="100%">
      <stop offset="0%" style="stop-color:#0ea5e9"/>
      <stop offset="100%" style="stop-color:#06b6d4"/>
    </linearGradient>
    <linearGradient id="glowGrad" x1="0%" y1="0%" x2="0%" y2="100%">
      <stop offset="0%" style="stop-color:#0ea5e9;stop-opacity:0.3"/>
      <stop offset="100%" style="stop-color:#0ea5e9;stop-opacity:0"/>
    </linearGradient>
    <filter id="glow">
      <feGaussianBlur stdDeviation="4" result="coloredBlur"/>
      <feMerge><feMergeNode in="coloredBlur"/><feMergeNode in="SourceGraphic"/></feMerge>
    </filter>
    <filter id="softGlow">
      <feGaussianBlur stdDeviation="8" result="coloredBlur"/>
      <feMerge><feMergeNode in="coloredBlur"/><feMergeNode in="SourceGraphic"/></feMerge>
    </filter>
  </defs>
  <rect width="1200" height="800" fill="url(#bgGrad)"/>

  <line x1="0" y1="0" x2="0" y2="800" stroke="#0ea5e9" stroke-opacity="0.02" stroke-width="0.5"/>
<line x1="60" y1="0" x2="60" y2="800" stroke="#0ea5e9" stroke-opacity="0.02" stroke-width="0.5"/>
<line x1="120" y1="0" x2="120" y2="800" stroke="#0ea5e9" stroke-opacity="0.02" stroke-width="0.5"/>
<line x1="180" y1="0" x2="180" y2="800" stroke="#0ea5e9" stroke-opacity="0.02" stroke-width="0.5"/>
<line x1="240" y1="0" x2="240" y2="800" stroke="#0ea5e9" stroke-opacity="0.02" stroke-width="0.5"/>
<line x1="300" y1="0" x2="300" y2="800" stroke="#0ea5e9" stroke-opacity="0.02" stroke-width="0.5"/>
<line x1="360" y1="0" x2="360" y2="800" stroke="#0ea5e9" stroke-opacity="0.02" stroke-width="0.5"/>
<line x1="420" y1="0" x2="420" y2="800" stroke="#0ea5e9" stroke-opacity="0.02" stroke-width="0.5"/>
<line x1="480" y1="0" x2="480" y2="800" stroke="#0ea5e9" stroke-opacity="0.02" stroke-width="0.5"/>
<line x1="540" y1="0" x2="540" y2="800" stroke="#0ea5e9" stroke-opacity="0.02" stroke-width="0.5"/>
<line x1="600" y1="0" x2="600" y2="800" stroke="#0ea5e9" stroke-opacity="0.02" stroke-width="0.5"/>
<line x1="660" y1="0" x2="660" y2="800" stroke="#0ea5e9" stroke-opacity="0.02" stroke-width="0.5"/>
<line x1="720" y1="0" x2="720" y2="800" stroke="#0ea5e9" stroke-opacity="0.02" stroke-width="0.5"/>
<line x1="780" y1="0" x2="780" y2="800" stroke="#0ea5e9" stroke-opacity="0.02" stroke-width="0.5"/>
<line x1="840" y1="0" x2="840" y2="800" stroke="#0ea5e9" stroke-opacity="0.02" stroke-width="0.5"/>
<line x1="900" y1="0" x2="900" y2="800" stroke="#0ea5e9" stroke-opacity="0.02" stroke-width="0.5"/>
<line x1="960" y1="0" x2="960" y2="800" stroke="#0ea5e9" stroke-opacity="0.02" stroke-width="0.5"/>
<line x1="1020" y1="0" x2="1020" y2="800" stroke="#0ea5e9" stroke-opacity="0.02" stroke-width="0.5"/>
<line x1="1080" y1="0" x2="1080" y2="800" stroke="#0ea5e9" stroke-opacity="0.02" stroke-width="0.5"/>
<line x1="1140" y1="0" x2="1140" y2="800" stroke="#0ea5e9" stroke-opacity="0.02" stroke-width="0.5"/>
<line x1="1200" y1="0" x2="1200" y2="800" stroke="#0ea5e9" stroke-opacity="0.02" stroke-width="0.5"/>
<line x1="0" y1="0" x2="1200" y2="0" stroke="#0ea5e9" stroke-opacity="0.02" stroke-width="0.5"/>
<line x1="0" y1="60" x2="1200" y2="60" stroke="#0ea5e9" stroke-opacity="0.02" stroke-width="0.5"/>
<line x1="0" y1="120" x2="1200" y2="120" stroke="#0ea5e9" stroke-opacity="0.02" stroke-width="0.5"/>
<line x1="0" y1="180" x2="1200" y2="180" stroke="#0ea5e9" stroke-opacity="0.02" stroke-width="0.5"/>
<line x1="0" y1="240" x2="1200" y2="240" stroke="#0ea5e9" stroke-opacity="0.02" stroke-width="0.5"/>
<line x1="0" y1="300" x2="1200" y2="300" stroke="#0ea5e9" stroke-opacity="0.02" stroke-width="0.5"/>
<line x1="0" y1="360" x2="1200" y2="360" stroke="#0ea5e9" stroke-opacity="0.02" stroke-width="0.5"/>
<line x1="0" y1="420" x2="1200" y2="420" stroke="#0ea5e9" stroke-opacity="0.02" stroke-width="0.5"/>
<line x1="0" y1="480" x2="1200" y2="480" stroke="#0ea5e9" stroke-opacity="0.02" stroke-width="0.5"/>
<line x1="0" y1="540" x2="1200" y2="540" stroke="#0ea5e9" stroke-opacity="0.02" stroke-width="0.5"/>
<line x1="0" y1="600" x2="1200" y2="600" stroke="#0ea5e9" stroke-opacity="0.02" stroke-width="0.5"/>
<line x1="0" y1="660" x2="1200" y2="660" stroke="#0ea5e9" stroke-opacity="0.02" stroke-width="0.5"/>
<line x1="0" y1="720" x2="1200" y2="720" stroke="#0ea5e9" stroke-opacity="0.02" stroke-width="0.5"/>
<line x1="0" y1="780" x2="1200" y2="780" stroke="#0ea5e9" stroke-opacity="0.02" stroke-width="0.5"/>
  <!-- US outline -->
  <path d="M200,250 L230,200 L320,180 L400,170 L500,160 L600,170 L700,160 L800,170 L900,180 L950,200 L1000,230 L1020,280 L1000,350 L980,400 L950,440 L900,460 L850,470 L800,500 L750,520 L700,510 L650,490 L600,500 L550,510 L500,500 L450,480 L400,500 L350,510 L300,490 L250,470 L220,420 L200,370 L190,320 Z" fill="#141c2e" stroke="#0ea5e9" stroke-opacity="0.2" stroke-width="1" opacity="0.8"/>
  <path d="M200,250 L230,200 L320,180 L400,170 L500,160 L600,170 L700,160 L800,170 L900,180 L950,200 L1000,230 L1020,280 L1000,350 L980,400 L950,440 L900,460 L850,470 L800,500 L750,520 L700,510 L650,490 L600,500 L550,510 L500,500 L450,480 L400,500 L350,510 L300,490 L250,470 L220,420 L200,370 L190,320 Z" fill="url(#glowGrad)" opacity="0.1"/>
  
    <circle cx="880" cy="280" r="18" fill="#f59e0b" opacity="0.1"/>
    <circle cx="880" cy="280" r="8" fill="#f59e0b" opacity="0.7" filter="url(#glow)"/>
    <text x="880" y="265" font-family="sans-serif" font-size="10" fill="#ffffff" opacity="0.7" text-anchor="middle">Baltimore/Elkridge, MD</text>
    <circle cx="880" cy="280" r="20" fill="none" stroke="#f59e0b" stroke-opacity="0.3" stroke-width="1"/>
    <circle cx="880" cy="280" r="30" fill="none" stroke="#f59e0b" stroke-opacity="0.15" stroke-width="0.5"/>
    <circle cx="780" cy="480" r="15" fill="#0ea5e9" opacity="0.1"/>
    <circle cx="780" cy="480" r="5" fill="#0ea5e9" opacity="0.7" filter="url(#glow)"/>
    <text x="780" y="465" font-family="sans-serif" font-size="10" fill="#ffffff" opacity="0.7" text-anchor="middle">Tampa, FL</text>
    <circle cx="830" cy="420" r="15" fill="#0ea5e9" opacity="0.1"/>
    <circle cx="830" cy="420" r="5" fill="#0ea5e9" opacity="0.7" filter="url(#glow)"/>
    <text x="830" y="405" font-family="sans-serif" font-size="10" fill="#ffffff" opacity="0.7" text-anchor="middle">Charleston, SC</text>
    <circle cx="450" cy="300" r="15" fill="#0ea5e9" opacity="0.1"/>
    <circle cx="450" cy="300" r="5" fill="#0ea5e9" opacity="0.7" filter="url(#glow)"/>
    <text x="450" y="285" font-family="sans-serif" font-size="10" fill="#ffffff" opacity="0.7" text-anchor="middle">Denver, CO</text>
    <circle cx="340" cy="420" r="15" fill="#0ea5e9" opacity="0.1"/>
    <circle cx="340" cy="420" r="5" fill="#0ea5e9" opacity="0.7" filter="url(#glow)"/>
    <text x="340" y="405" font-family="sans-serif" font-size="10" fill="#ffffff" opacity="0.7" text-anchor="middle">Phoenix, AZ</text>
    <circle cx="530" cy="260" r="15" fill="#0ea5e9" opacity="0.1"/>
    <circle cx="530" cy="260" r="5" fill="#0ea5e9" opacity="0.7" filter="url(#glow)"/>
    <text x="530" y="245" font-family="sans-serif" font-size="10" fill="#ffffff" opacity="0.7" text-anchor="middle">Omaha, NE</text>
    <circle cx="520" cy="460" r="15" fill="#0ea5e9" opacity="0.1"/>
    <circle cx="520" cy="460" r="5" fill="#0ea5e9" opacity="0.7" filter="url(#glow)"/>
    <text x="520" y="445" font-family="sans-serif" font-size="10" fill="#ffffff" opacity="0.7" text-anchor="middle">San Antonio, TX</text>
    <circle cx="920" cy="240" r="15" fill="#0ea5e9" opacity="0.1"/>
    <circle cx="920" cy="240" r="5" fill="#0ea5e9" opacity="0.7" filter="url(#glow)"/>
    <text x="920" y="225" font-family="sans-serif" font-size="10" fill="#ffffff" opacity="0.7" text-anchor="middle">New York</text><line x1="880" y1="280" x2="780" y2="480" stroke="#0ea5e9" stroke-opacity="0.06" stroke-width="0.5" stroke-dasharray="4,4"/><line x1="880" y1="280" x2="450" y2="300" stroke="#0ea5e9" stroke-opacity="0.06" stroke-width="0.5" stroke-dasharray="4,4"/><line x1="780" y1="480" x2="830" y2="420" stroke="#0ea5e9" stroke-opacity="0.06" stroke-width="0.5" stroke-dasharray="4,4"/><line x1="780" y1="480" x2="450" y2="300" stroke="#0ea5e9" stroke-opacity="0.06" stroke-width="0.5" stroke-dasharray="4,4"/><line x1="780" y1="480" x2="340" y2="420" stroke="#0ea5e9" stroke-opacity="0.06" stroke-width="0.5" stroke-dasharray="4,4"/><line x1="780" y1="480" x2="530" y2="260" stroke="#0ea5e9" stroke-opacity="0.06" stroke-width="0.5" stroke-dasharray="4,4"/><line x1="830" y1="420" x2="520" y2="460" stroke="#0ea5e9" stroke-opacity="0.06" stroke-width="0.5" stroke-dasharray="4,4"/><line x1="450" y1="300" x2="530" y2="260" stroke="#0ea5e9" stroke-opacity="0.06" stroke-width="0.5" stroke-dasharray="4,4"/><line x1="450" y1="300" x2="520" y2="460" stroke="#0ea5e9" stroke-opacity="0.06" stroke-width="0.5" stroke-dasharray="4,4"/><line x1="340" y1="420" x2="530" y2="260" stroke="#0ea5e9" stroke-opacity="0.06" stroke-width="0.5" stroke-dasharray="4,4"/><line x1="530" y1="260" x2="920" y2="240" stroke="#0ea5e9" stroke-opacity="0.06" stroke-width="0.5" stroke-dasharray="4,4"/>
  <circle cx="873" cy="211" r="2.3287426034840184" fill="#0ea5e9" opacity="0.12568418649617855"/>
<circle cx="758" cy="89" r="2.90680735597103" fill="#0ea5e9" opacity="0.2632245879784101"/>
<circle cx="1059" cy="587" r="1.0406686125763316" fill="#0ea5e9" opacity="0.3619994315582553"/>
<circle cx="109" cy="670" r="1.773762643054715" fill="#0ea5e9" opacity="0.21199071613024978"/>
<circle cx="53" cy="385" r="2.5770400325590304" fill="#0ea5e9" opacity="0.2034407479490174"/>
<circle cx="232" cy="615" r="2.4703739696246227" fill="#0ea5e9" opacity="0.19975558251159548"/>
<circle cx="110" cy="380" r="2.092027490415383" fill="#0ea5e9" opacity="0.3440526596668265"/>
<circle cx="378" cy="721" r="1.9292457994940755" fill="#0ea5e9" opacity="0.3086167755988192"/>
<circle cx="393" cy="158" r="1.1262010740644492" fill="#0ea5e9" opacity="0.33285711991102657"/>
<circle cx="957" cy="57" r="1.5868851423500625" fill="#0ea5e9" opacity="0.11314188269773694"/>
<circle cx="428" cy="62" r="1.6311916400994506" fill="#0ea5e9" opacity="0.19302276488106757"/>
<circle cx="835" cy="576" r="1.9467995353536869" fill="#0ea5e9" opacity="0.1109862314610725"/>
<circle cx="411" cy="312" r="1.7139483520707268" fill="#0ea5e9" opacity="0.33425247009352754"/>
<circle cx="699" cy="299" r="1.2489500164887668" fill="#0ea5e9" opacity="0.21040575229440192"/>
<circle cx="839" cy="470" r="2.7892749899101066" fill="#0ea5e9" opacity="0.21599343047820768"/>

</svg>